<mxfile host="Electron" agent="Mozilla/5.0 (Windows NT 10.0; Win64; x64) AppleWebKit/537.36 (KHTML, like Gecko) draw.io/24.7.8 Chrome/128.0.6613.36 Electron/32.0.1 Safari/537.36" version="24.7.8">
  <diagram name="Page-1" id="f1b7ffb7-ca1e-a977-7cf5-a751b3c06c05">
    <mxGraphModel dx="1050" dy="621" grid="1" gridSize="10" guides="1" tooltips="1" connect="1" arrows="1" fold="1" page="1" pageScale="1" pageWidth="826" pageHeight="1169" background="#ffffff" math="0" shadow="0">
      <root>
        <mxCell id="0" />
        <mxCell id="1" parent="0" />
        <mxCell id="0DdBnisEBWxJlXfPd2sO-74" value="&lt;font style=&quot;font-size: 24px;&quot;&gt;Welcome Page&lt;/font&gt;" style="text;html=1;align=center;verticalAlign=middle;whiteSpace=wrap;rounded=0;" parent="1" vertex="1">
          <mxGeometry x="20" y="20" width="189" height="30" as="geometry" />
        </mxCell>
        <mxCell id="0DdBnisEBWxJlXfPd2sO-102" value="" style="endArrow=classic;html=1;rounded=0;strokeColor=#FFFFFF;" parent="1" edge="1">
          <mxGeometry width="50" height="50" relative="1" as="geometry">
            <mxPoint x="81.94" y="2170" as="sourcePoint" />
            <mxPoint x="61.94" y="2169.58" as="targetPoint" />
          </mxGeometry>
        </mxCell>
        <mxCell id="AhlPXchiRFUv19-gY8pR-10" value="" style="rounded=0;whiteSpace=wrap;html=1;sketch=1;hachureGap=4;jiggle=2;curveFitting=1;fontFamily=Architects Daughter;fontSource=https%3A%2F%2Ffonts.googleapis.com%2Fcss%3Ffamily%3DArchitects%2BDaughter;" parent="1" vertex="1">
          <mxGeometry x="14.379999999999995" y="70" width="693.3" height="390" as="geometry" />
        </mxCell>
        <mxCell id="AhlPXchiRFUv19-gY8pR-11" value="Image of&amp;nbsp; a Pizza" style="ellipse;whiteSpace=wrap;html=1;aspect=fixed;sketch=1;hachureGap=4;jiggle=2;curveFitting=1;fontFamily=Architects Daughter;fontSource=https%3A%2F%2Ffonts.googleapis.com%2Fcss%3Ffamily%3DArchitects%2BDaughter;" parent="1" vertex="1">
          <mxGeometry x="415.89" y="185" width="205" height="205" as="geometry" />
        </mxCell>
        <mxCell id="AhlPXchiRFUv19-gY8pR-13" value="Image of&amp;nbsp; a Pizza Logo" style="ellipse;whiteSpace=wrap;html=1;aspect=fixed;sketch=1;hachureGap=4;jiggle=2;curveFitting=1;fontFamily=Architects Daughter;fontSource=https%3A%2F%2Ffonts.googleapis.com%2Fcss%3Ffamily%3DArchitects%2BDaughter;" parent="1" vertex="1">
          <mxGeometry x="24.810000000000002" y="80" width="77" height="77" as="geometry" />
        </mxCell>
        <mxCell id="AhlPXchiRFUv19-gY8pR-14" value="Contact" style="rounded=0;whiteSpace=wrap;html=1;sketch=1;hachureGap=4;jiggle=2;curveFitting=1;fontFamily=Architects Daughter;fontSource=https%3A%2F%2Ffonts.googleapis.com%2Fcss%3Ffamily%3DArchitects%2BDaughter;" parent="1" vertex="1">
          <mxGeometry x="350.59000000000003" y="100" width="98.4" height="18.3" as="geometry" />
        </mxCell>
        <mxCell id="AhlPXchiRFUv19-gY8pR-15" value="Log In" style="rounded=0;whiteSpace=wrap;html=1;sketch=1;hachureGap=4;jiggle=2;curveFitting=1;fontFamily=Architects Daughter;fontSource=https%3A%2F%2Ffonts.googleapis.com%2Fcss%3Ffamily%3DArchitects%2BDaughter;" parent="1" vertex="1">
          <mxGeometry x="469.19" y="100" width="98.4" height="18.3" as="geometry" />
        </mxCell>
        <mxCell id="AhlPXchiRFUv19-gY8pR-16" value="Welcome" style="rounded=0;whiteSpace=wrap;html=1;sketch=1;hachureGap=4;jiggle=2;curveFitting=1;fontFamily=Architects Daughter;fontSource=https%3A%2F%2Ffonts.googleapis.com%2Fcss%3Ffamily%3DArchitects%2BDaughter;fillColor=#B3B3B3;" parent="1" vertex="1">
          <mxGeometry x="239.63000000000002" y="100" width="98.4" height="18.3" as="geometry" />
        </mxCell>
        <mxCell id="AhlPXchiRFUv19-gY8pR-17" value="Create Account" style="rounded=0;whiteSpace=wrap;html=1;sketch=1;hachureGap=4;jiggle=2;curveFitting=1;fontFamily=Architects Daughter;fontSource=https%3A%2F%2Ffonts.googleapis.com%2Fcss%3Ffamily%3DArchitects%2BDaughter;" parent="1" vertex="1">
          <mxGeometry x="585.79" y="100" width="98.4" height="18.3" as="geometry" />
        </mxCell>
        <mxCell id="AhlPXchiRFUv19-gY8pR-19" value="&lt;h1 style=&quot;margin-top: 0px;&quot;&gt;&lt;font style=&quot;font-size: 28px;&quot;&gt;Welcome to Peeza&lt;/font&gt;&lt;/h1&gt;&lt;p&gt;Lorem ipsum dolor sit amet, consectetur adipisicing elit, sed do eiusmod tempor incididunt ut labore et dolore magna aliqua.&lt;/p&gt;" style="text;html=1;whiteSpace=wrap;overflow=hidden;rounded=0;fontFamily=Architects Daughter;fontSource=https%3A%2F%2Ffonts.googleapis.com%2Fcss%3Ffamily%3DArchitects%2BDaughter;" parent="1" vertex="1">
          <mxGeometry x="81.13" y="210" width="225" height="160" as="geometry" />
        </mxCell>
        <mxCell id="AhlPXchiRFUv19-gY8pR-20" value="&lt;span style=&quot;font-size: 24px;&quot;&gt;Log In Page&lt;/span&gt;" style="text;html=1;align=center;verticalAlign=middle;whiteSpace=wrap;rounded=0;" parent="1" vertex="1">
          <mxGeometry x="13.459999999999994" y="480" width="146.92" height="30" as="geometry" />
        </mxCell>
        <mxCell id="AhlPXchiRFUv19-gY8pR-21" value="" style="rounded=0;whiteSpace=wrap;html=1;sketch=1;hachureGap=4;jiggle=2;curveFitting=1;fontFamily=Architects Daughter;fontSource=https%3A%2F%2Ffonts.googleapis.com%2Fcss%3Ffamily%3DArchitects%2BDaughter;" parent="1" vertex="1">
          <mxGeometry x="12.299999999999995" y="530" width="693.3" height="390" as="geometry" />
        </mxCell>
        <mxCell id="AhlPXchiRFUv19-gY8pR-22" value="Image of&amp;nbsp; a Pizza" style="ellipse;whiteSpace=wrap;html=1;aspect=fixed;sketch=1;hachureGap=4;jiggle=2;curveFitting=1;fontFamily=Architects Daughter;fontSource=https%3A%2F%2Ffonts.googleapis.com%2Fcss%3Ffamily%3DArchitects%2BDaughter;" parent="1" vertex="1">
          <mxGeometry x="415.89" y="645" width="205" height="205" as="geometry" />
        </mxCell>
        <mxCell id="AhlPXchiRFUv19-gY8pR-23" value="Image of&amp;nbsp; a Pizza Logo" style="ellipse;whiteSpace=wrap;html=1;aspect=fixed;sketch=1;hachureGap=4;jiggle=2;curveFitting=1;fontFamily=Architects Daughter;fontSource=https%3A%2F%2Ffonts.googleapis.com%2Fcss%3Ffamily%3DArchitects%2BDaughter;" parent="1" vertex="1">
          <mxGeometry x="22.730000000000004" y="540" width="77" height="77" as="geometry" />
        </mxCell>
        <mxCell id="AhlPXchiRFUv19-gY8pR-24" value="Contact" style="rounded=0;whiteSpace=wrap;html=1;sketch=1;hachureGap=4;jiggle=2;curveFitting=1;fontFamily=Architects Daughter;fontSource=https%3A%2F%2Ffonts.googleapis.com%2Fcss%3Ffamily%3DArchitects%2BDaughter;" parent="1" vertex="1">
          <mxGeometry x="235.17" y="560" width="98.4" height="18.3" as="geometry" />
        </mxCell>
        <mxCell id="AhlPXchiRFUv19-gY8pR-25" value="Log In" style="rounded=0;whiteSpace=wrap;html=1;sketch=1;hachureGap=4;jiggle=2;curveFitting=1;fontFamily=Architects Daughter;fontSource=https%3A%2F%2Ffonts.googleapis.com%2Fcss%3Ffamily%3DArchitects%2BDaughter;fillColor=#B3B3B3;" parent="1" vertex="1">
          <mxGeometry x="467.11" y="560" width="98.4" height="18.3" as="geometry" />
        </mxCell>
        <mxCell id="AhlPXchiRFUv19-gY8pR-26" value="About" style="rounded=0;whiteSpace=wrap;html=1;sketch=1;hachureGap=4;jiggle=2;curveFitting=1;fontFamily=Architects Daughter;fontSource=https%3A%2F%2Ffonts.googleapis.com%2Fcss%3Ffamily%3DArchitects%2BDaughter;" parent="1" vertex="1">
          <mxGeometry x="350.59000000000003" y="560" width="98.4" height="18.3" as="geometry" />
        </mxCell>
        <mxCell id="AhlPXchiRFUv19-gY8pR-27" value="Create Account" style="rounded=0;whiteSpace=wrap;html=1;sketch=1;hachureGap=4;jiggle=2;curveFitting=1;fontFamily=Architects Daughter;fontSource=https%3A%2F%2Ffonts.googleapis.com%2Fcss%3Ffamily%3DArchitects%2BDaughter;" parent="1" vertex="1">
          <mxGeometry x="583.7099999999999" y="560" width="98.4" height="18.3" as="geometry" />
        </mxCell>
        <mxCell id="AhlPXchiRFUv19-gY8pR-41" value="" style="rounded=0;whiteSpace=wrap;html=1;sketch=1;hachureGap=4;jiggle=2;curveFitting=1;fontFamily=Architects Daughter;fontSource=https%3A%2F%2Ffonts.googleapis.com%2Fcss%3Ffamily%3DArchitects%2BDaughter;" parent="1" vertex="1">
          <mxGeometry x="49" y="645" width="265.18" height="255" as="geometry" />
        </mxCell>
        <mxCell id="AhlPXchiRFUv19-gY8pR-42" value="&lt;font style=&quot;font-size: 20px;&quot;&gt;Log In&lt;/font&gt;" style="text;html=1;align=center;verticalAlign=middle;whiteSpace=wrap;rounded=0;fontFamily=Architects Daughter;fontSource=https%3A%2F%2Ffonts.googleapis.com%2Fcss%3Ffamily%3DArchitects%2BDaughter;" parent="1" vertex="1">
          <mxGeometry x="149.00000000000003" y="649" width="60" height="30" as="geometry" />
        </mxCell>
        <mxCell id="AhlPXchiRFUv19-gY8pR-46" value="&lt;font style=&quot;font-size: 12px;&quot;&gt;Username&lt;sup&gt;&lt;font style=&quot;font-size: 12px;&quot; color=&quot;#ff0000&quot;&gt;*&lt;/font&gt;&lt;/sup&gt;&lt;/font&gt;" style="fillColor=none;strokeColor=none;html=1;fontSize=11;fontStyle=0;align=left;fontColor=#596780;fontStyle=1;fontSize=11;sketch=1;hachureGap=4;jiggle=2;curveFitting=1;fontFamily=Architects Daughter;fontSource=https%3A%2F%2Ffonts.googleapis.com%2Fcss%3Ffamily%3DArchitects%2BDaughter;" parent="1" vertex="1">
          <mxGeometry x="60.11999999999999" y="682" width="240" height="20" as="geometry" />
        </mxCell>
        <mxCell id="AhlPXchiRFUv19-gY8pR-48" value="&lt;font style=&quot;font-size: 12px;&quot;&gt;Password&lt;sup&gt;&lt;font style=&quot;font-size: 12px;&quot; color=&quot;#ff0000&quot;&gt;*&lt;/font&gt;&lt;/sup&gt;&lt;/font&gt;" style="fillColor=none;strokeColor=none;html=1;fontSize=11;fontStyle=0;align=left;fontColor=#596780;fontStyle=1;fontSize=11;sketch=1;hachureGap=4;jiggle=2;curveFitting=1;fontFamily=Architects Daughter;fontSource=https%3A%2F%2Ffonts.googleapis.com%2Fcss%3Ffamily%3DArchitects%2BDaughter;" parent="1" vertex="1">
          <mxGeometry x="60.26999999999998" y="752" width="240" height="20" as="geometry" />
        </mxCell>
        <mxCell id="AhlPXchiRFUv19-gY8pR-49" value="&lt;span style=&quot;color: rgba(0, 0, 0, 0); font-family: monospace; font-size: 0px; background-color: rgb(251, 251, 251);&quot;&gt;%3CmxGraphModel%3E%3Croot%3E%3CmxCell%20id%3D%220%22%2F%3E%3CmxCell%20id%3D%221%22%20parent%3D%220%22%2F%3E%3CmxCell%20id%3D%222%22%20value%3D%22%22%20style%3D%22strokeWidth%3D1%3Bshadow%3D0%3Bdashed%3D0%3Balign%3Dcenter%3Bhtml%3D1%3Bshape%3Dmxgraph.mockup.text.textBox%3BfontColor%3D%23666666%3Balign%3Dleft%3BfontSize%3D17%3BspacingLeft%3D4%3BspacingTop%3D-3%3BwhiteSpace%3Dwrap%3BstrokeColor%3D%23666666%3BmainText%3D%22%20vertex%3D%221%22%20parent%3D%221%22%3E%3CmxGeometry%20x%3D%22731.9399999999999%22%20y%3D%22629%22%20width%3D%22150%22%20height%3D%2220%22%20as%3D%22geometry%22%2F%3E%3C%2FmxCell%3E%3C%2Froot%3E%3C%2FmxGraphModel%3E&lt;/span&gt;" style="rounded=1;arcSize=9;align=left;spacingLeft=5;strokeColor=#B3B3B3;html=1;strokeWidth=2;fontSize=12;sketch=1;hachureGap=4;jiggle=2;curveFitting=1;fontFamily=Architects Daughter;fontSource=https%3A%2F%2Ffonts.googleapis.com%2Fcss%3Ffamily%3DArchitects%2BDaughter;labelBackgroundColor=default;" parent="1" vertex="1">
          <mxGeometry x="63.040000000000006" y="777.5" width="237.92" height="25" as="geometry" />
        </mxCell>
        <mxCell id="AhlPXchiRFUv19-gY8pR-50" value="&lt;span style=&quot;color: rgba(0, 0, 0, 0); font-family: monospace; font-size: 0px; background-color: rgb(251, 251, 251);&quot;&gt;%3CmxGraphModel%3E%3Croot%3E%3CmxCell%20id%3D%220%22%2F%3E%3CmxCell%20id%3D%221%22%20parent%3D%220%22%2F%3E%3CmxCell%20id%3D%222%22%20value%3D%22%22%20style%3D%22strokeWidth%3D1%3Bshadow%3D0%3Bdashed%3D0%3Balign%3Dcenter%3Bhtml%3D1%3Bshape%3Dmxgraph.mockup.text.textBox%3BfontColor%3D%23666666%3Balign%3Dleft%3BfontSize%3D17%3BspacingLeft%3D4%3BspacingTop%3D-3%3BwhiteSpace%3Dwrap%3BstrokeColor%3D%23666666%3BmainText%3D%22%20vertex%3D%221%22%20parent%3D%221%22%3E%3CmxGeometry%20x%3D%22731.9399999999999%22%20y%3D%22629%22%20width%3D%22150%22%20height%3D%2220%22%20as%3D%22geometry%22%2F%3E%3C%2FmxCell%3E%3C%2Froot%3E%3C%2FmxGraphModel%3E&lt;/span&gt;" style="rounded=1;arcSize=9;align=left;spacingLeft=5;strokeColor=#B3B3B3;html=1;strokeWidth=2;fontSize=12;sketch=1;hachureGap=4;jiggle=2;curveFitting=1;fontFamily=Architects Daughter;fontSource=https%3A%2F%2Ffonts.googleapis.com%2Fcss%3Ffamily%3DArchitects%2BDaughter;labelBackgroundColor=default;" parent="1" vertex="1">
          <mxGeometry x="60.040000000000006" y="707" width="237.92" height="25" as="geometry" />
        </mxCell>
        <mxCell id="AhlPXchiRFUv19-gY8pR-52" value="" style="shape=mxgraph.signs.healthcare.eye;html=1;pointerEvents=1;fillColor=#000000;strokeColor=none;verticalLabelPosition=bottom;verticalAlign=top;align=center;sketch=1;hachureGap=4;jiggle=2;curveFitting=1;fontFamily=Architects Daughter;fontSource=https%3A%2F%2Ffonts.googleapis.com%2Fcss%3Ffamily%3DArchitects%2BDaughter;" parent="1" vertex="1">
          <mxGeometry x="270.94" y="781.25" width="24.54" height="17.5" as="geometry" />
        </mxCell>
        <mxCell id="AhlPXchiRFUv19-gY8pR-53" value="&lt;font style=&quot;font-size: 10px;&quot;&gt;&lt;u&gt;Forgot Password?&lt;/u&gt;&lt;/font&gt;" style="text;html=1;align=center;verticalAlign=middle;whiteSpace=wrap;rounded=0;fontFamily=Architects Daughter;fontSource=https%3A%2F%2Ffonts.googleapis.com%2Fcss%3Ffamily%3DArchitects%2BDaughter;" parent="1" vertex="1">
          <mxGeometry x="58.559999999999995" y="810" width="102.84" height="30" as="geometry" />
        </mxCell>
        <mxCell id="AhlPXchiRFUv19-gY8pR-54" value="&lt;font style=&quot;font-size: 15px;&quot;&gt;Log In&lt;/font&gt;" style="rounded=1;html=1;shadow=0;dashed=0;whiteSpace=wrap;fontSize=10;fillColor=#E6E6E6;align=center;strokeColor=#E6E6E6;fontColor=#333333;sketch=1;hachureGap=4;jiggle=2;curveFitting=1;fontFamily=Architects Daughter;fontSource=https%3A%2F%2Ffonts.googleapis.com%2Fcss%3Ffamily%3DArchitects%2BDaughter;" parent="1" vertex="1">
          <mxGeometry x="113.86" y="860" width="116.41" height="26.88" as="geometry" />
        </mxCell>
        <mxCell id="AhlPXchiRFUv19-gY8pR-55" value="&lt;span style=&quot;font-size: 24px;&quot;&gt;Create Account Page&lt;/span&gt;" style="text;html=1;align=center;verticalAlign=middle;whiteSpace=wrap;rounded=0;" parent="1" vertex="1">
          <mxGeometry x="11.14" y="944" width="239" height="30" as="geometry" />
        </mxCell>
        <mxCell id="AhlPXchiRFUv19-gY8pR-56" value="" style="rounded=0;whiteSpace=wrap;html=1;sketch=1;hachureGap=4;jiggle=2;curveFitting=1;fontFamily=Architects Daughter;fontSource=https%3A%2F%2Ffonts.googleapis.com%2Fcss%3Ffamily%3DArchitects%2BDaughter;" parent="1" vertex="1">
          <mxGeometry x="12.299999999999995" y="994" width="693.3" height="390" as="geometry" />
        </mxCell>
        <mxCell id="AhlPXchiRFUv19-gY8pR-58" value="Image of&amp;nbsp; a Pizza Logo" style="ellipse;whiteSpace=wrap;html=1;aspect=fixed;sketch=1;hachureGap=4;jiggle=2;curveFitting=1;fontFamily=Architects Daughter;fontSource=https%3A%2F%2Ffonts.googleapis.com%2Fcss%3Ffamily%3DArchitects%2BDaughter;" parent="1" vertex="1">
          <mxGeometry x="22.730000000000004" y="1004" width="77" height="77" as="geometry" />
        </mxCell>
        <mxCell id="AhlPXchiRFUv19-gY8pR-59" value="Contact" style="rounded=0;whiteSpace=wrap;html=1;sketch=1;hachureGap=4;jiggle=2;curveFitting=1;fontFamily=Architects Daughter;fontSource=https%3A%2F%2Ffonts.googleapis.com%2Fcss%3Ffamily%3DArchitects%2BDaughter;" parent="1" vertex="1">
          <mxGeometry x="235.17" y="1024" width="98.4" height="18.3" as="geometry" />
        </mxCell>
        <mxCell id="AhlPXchiRFUv19-gY8pR-60" value="Log In" style="rounded=0;whiteSpace=wrap;html=1;sketch=1;hachureGap=4;jiggle=2;curveFitting=1;fontFamily=Architects Daughter;fontSource=https%3A%2F%2Ffonts.googleapis.com%2Fcss%3Ffamily%3DArchitects%2BDaughter;fillColor=none;" parent="1" vertex="1">
          <mxGeometry x="467.11" y="1024" width="98.4" height="18.3" as="geometry" />
        </mxCell>
        <mxCell id="AhlPXchiRFUv19-gY8pR-61" value="About" style="rounded=0;whiteSpace=wrap;html=1;sketch=1;hachureGap=4;jiggle=2;curveFitting=1;fontFamily=Architects Daughter;fontSource=https%3A%2F%2Ffonts.googleapis.com%2Fcss%3Ffamily%3DArchitects%2BDaughter;" parent="1" vertex="1">
          <mxGeometry x="350.59000000000003" y="1024" width="98.4" height="18.3" as="geometry" />
        </mxCell>
        <mxCell id="AhlPXchiRFUv19-gY8pR-62" value="Create Account" style="rounded=0;whiteSpace=wrap;html=1;sketch=1;hachureGap=4;jiggle=2;curveFitting=1;fontFamily=Architects Daughter;fontSource=https%3A%2F%2Ffonts.googleapis.com%2Fcss%3Ffamily%3DArchitects%2BDaughter;fillColor=#B3B3B3;" parent="1" vertex="1">
          <mxGeometry x="583.7099999999999" y="1024" width="98.4" height="18.3" as="geometry" />
        </mxCell>
        <mxCell id="AhlPXchiRFUv19-gY8pR-63" value="" style="rounded=0;whiteSpace=wrap;html=1;sketch=1;hachureGap=4;jiggle=2;curveFitting=1;fontFamily=Architects Daughter;fontSource=https%3A%2F%2Ffonts.googleapis.com%2Fcss%3Ffamily%3DArchitects%2BDaughter;" parent="1" vertex="1">
          <mxGeometry x="129" y="1091" width="534.94" height="269" as="geometry" />
        </mxCell>
        <mxCell id="AhlPXchiRFUv19-gY8pR-64" value="&lt;span style=&quot;font-size: 20px;&quot;&gt;Create Account&lt;/span&gt;" style="text;html=1;align=center;verticalAlign=middle;whiteSpace=wrap;rounded=0;fontFamily=Architects Daughter;fontSource=https%3A%2F%2Ffonts.googleapis.com%2Fcss%3Ffamily%3DArchitects%2BDaughter;" parent="1" vertex="1">
          <mxGeometry x="312.01" y="1094.25" width="180" height="30" as="geometry" />
        </mxCell>
        <mxCell id="AhlPXchiRFUv19-gY8pR-65" value="&lt;font style=&quot;font-size: 12px;&quot;&gt;Username&lt;sup&gt;&lt;font style=&quot;font-size: 12px;&quot; color=&quot;#ff0000&quot;&gt;*&lt;/font&gt;&lt;/sup&gt;&lt;/font&gt;" style="fillColor=none;strokeColor=none;html=1;fontSize=11;fontStyle=0;align=left;fontColor=#596780;fontStyle=1;fontSize=11;sketch=1;hachureGap=4;jiggle=2;curveFitting=1;fontFamily=Architects Daughter;fontSource=https%3A%2F%2Ffonts.googleapis.com%2Fcss%3Ffamily%3DArchitects%2BDaughter;" parent="1" vertex="1">
          <mxGeometry x="139.32" y="1128" width="240" height="20" as="geometry" />
        </mxCell>
        <mxCell id="AhlPXchiRFUv19-gY8pR-66" value="&lt;font style=&quot;font-size: 12px;&quot;&gt;Password&lt;sup&gt;&lt;font style=&quot;font-size: 12px;&quot; color=&quot;#ff0000&quot;&gt;*&lt;/font&gt;&lt;/sup&gt;&lt;/font&gt;" style="fillColor=none;strokeColor=none;html=1;fontSize=11;fontStyle=0;align=left;fontColor=#596780;fontStyle=1;fontSize=11;sketch=1;hachureGap=4;jiggle=2;curveFitting=1;fontFamily=Architects Daughter;fontSource=https%3A%2F%2Ffonts.googleapis.com%2Fcss%3Ffamily%3DArchitects%2BDaughter;" parent="1" vertex="1">
          <mxGeometry x="138.77999999999997" y="1188.5" width="240" height="20" as="geometry" />
        </mxCell>
        <mxCell id="AhlPXchiRFUv19-gY8pR-67" value="&lt;span style=&quot;color: rgba(0, 0, 0, 0); font-family: monospace; font-size: 0px; background-color: rgb(251, 251, 251);&quot;&gt;%3CmxGraphModel%3E%3Croot%3E%3CmxCell%20id%3D%220%22%2F%3E%3CmxCell%20id%3D%221%22%20parent%3D%220%22%2F%3E%3CmxCell%20id%3D%222%22%20value%3D%22%22%20style%3D%22strokeWidth%3D1%3Bshadow%3D0%3Bdashed%3D0%3Balign%3Dcenter%3Bhtml%3D1%3Bshape%3Dmxgraph.mockup.text.textBox%3BfontColor%3D%23666666%3Balign%3Dleft%3BfontSize%3D17%3BspacingLeft%3D4%3BspacingTop%3D-3%3BwhiteSpace%3Dwrap%3BstrokeColor%3D%23666666%3BmainText%3D%22%20vertex%3D%221%22%20parent%3D%221%22%3E%3CmxGeometry%20x%3D%22731.9399999999999%22%20y%3D%22629%22%20width%3D%22150%22%20height%3D%2220%22%20as%3D%22geometry%22%2F%3E%3C%2FmxCell%3E%3C%2Froot%3E%3C%2FmxGraphModel%3E&lt;/span&gt;" style="rounded=1;arcSize=9;align=left;spacingLeft=5;strokeColor=#B3B3B3;html=1;strokeWidth=2;fontSize=12;sketch=1;hachureGap=4;jiggle=2;curveFitting=1;fontFamily=Architects Daughter;fontSource=https%3A%2F%2Ffonts.googleapis.com%2Fcss%3Ffamily%3DArchitects%2BDaughter;labelBackgroundColor=default;" parent="1" vertex="1">
          <mxGeometry x="141.55" y="1214" width="237.92" height="25" as="geometry" />
        </mxCell>
        <mxCell id="AhlPXchiRFUv19-gY8pR-68" value="&lt;span style=&quot;color: rgba(0, 0, 0, 0); font-family: monospace; font-size: 0px; background-color: rgb(251, 251, 251);&quot;&gt;%3CmxGraphModel%3E%3Croot%3E%3CmxCell%20id%3D%220%22%2F%3E%3CmxCell%20id%3D%221%22%20parent%3D%220%22%2F%3E%3CmxCell%20id%3D%222%22%20value%3D%22%22%20style%3D%22strokeWidth%3D1%3Bshadow%3D0%3Bdashed%3D0%3Balign%3Dcenter%3Bhtml%3D1%3Bshape%3Dmxgraph.mockup.text.textBox%3BfontColor%3D%23666666%3Balign%3Dleft%3BfontSize%3D17%3BspacingLeft%3D4%3BspacingTop%3D-3%3BwhiteSpace%3Dwrap%3BstrokeColor%3D%23666666%3BmainText%3D%22%20vertex%3D%221%22%20parent%3D%221%22%3E%3CmxGeometry%20x%3D%22731.9399999999999%22%20y%3D%22629%22%20width%3D%22150%22%20height%3D%2220%22%20as%3D%22geometry%22%2F%3E%3C%2FmxCell%3E%3C%2Froot%3E%3C%2FmxGraphModel%3E&lt;/span&gt;" style="rounded=1;arcSize=9;align=left;spacingLeft=5;strokeColor=#B3B3B3;html=1;strokeWidth=2;fontSize=12;sketch=1;hachureGap=4;jiggle=2;curveFitting=1;fontFamily=Architects Daughter;fontSource=https%3A%2F%2Ffonts.googleapis.com%2Fcss%3Ffamily%3DArchitects%2BDaughter;labelBackgroundColor=default;" parent="1" vertex="1">
          <mxGeometry x="139.24" y="1153" width="237.92" height="25" as="geometry" />
        </mxCell>
        <mxCell id="AhlPXchiRFUv19-gY8pR-69" value="" style="shape=mxgraph.signs.healthcare.eye;html=1;pointerEvents=1;fillColor=#000000;strokeColor=none;verticalLabelPosition=bottom;verticalAlign=top;align=center;sketch=1;hachureGap=4;jiggle=2;curveFitting=1;fontFamily=Architects Daughter;fontSource=https%3A%2F%2Ffonts.googleapis.com%2Fcss%3Ffamily%3DArchitects%2BDaughter;" parent="1" vertex="1">
          <mxGeometry x="350.08" y="1217.75" width="24.54" height="17.5" as="geometry" />
        </mxCell>
        <mxCell id="AhlPXchiRFUv19-gY8pR-71" value="&lt;span style=&quot;font-size: 15px;&quot;&gt;Create Account&lt;/span&gt;" style="rounded=1;html=1;shadow=0;dashed=0;whiteSpace=wrap;fontSize=10;fillColor=#E6E6E6;align=center;strokeColor=#E6E6E6;fontColor=#333333;sketch=1;hachureGap=4;jiggle=2;curveFitting=1;fontFamily=Architects Daughter;fontSource=https%3A%2F%2Ffonts.googleapis.com%2Fcss%3Ffamily%3DArchitects%2BDaughter;" parent="1" vertex="1">
          <mxGeometry x="365.95" y="1319" width="116.41" height="26.88" as="geometry" />
        </mxCell>
        <mxCell id="AhlPXchiRFUv19-gY8pR-72" value="&lt;font style=&quot;font-size: 12px;&quot;&gt;Confrim Password&lt;sup&gt;&lt;font style=&quot;font-size: 12px;&quot; color=&quot;#ff0000&quot;&gt;*&lt;/font&gt;&lt;/sup&gt;&lt;/font&gt;" style="fillColor=none;strokeColor=none;html=1;fontSize=11;fontStyle=0;align=left;fontColor=#596780;fontStyle=1;fontSize=11;sketch=1;hachureGap=4;jiggle=2;curveFitting=1;fontFamily=Architects Daughter;fontSource=https%3A%2F%2Ffonts.googleapis.com%2Fcss%3Ffamily%3DArchitects%2BDaughter;" parent="1" vertex="1">
          <mxGeometry x="144.10999999999996" y="1250.5" width="240" height="20" as="geometry" />
        </mxCell>
        <mxCell id="AhlPXchiRFUv19-gY8pR-73" value="&lt;span style=&quot;color: rgba(0, 0, 0, 0); font-family: monospace; font-size: 0px; background-color: rgb(251, 251, 251);&quot;&gt;%3CmxGraphModel%3E%3Croot%3E%3CmxCell%20id%3D%220%22%2F%3E%3CmxCell%20id%3D%221%22%20parent%3D%220%22%2F%3E%3CmxCell%20id%3D%222%22%20value%3D%22%22%20style%3D%22strokeWidth%3D1%3Bshadow%3D0%3Bdashed%3D0%3Balign%3Dcenter%3Bhtml%3D1%3Bshape%3Dmxgraph.mockup.text.textBox%3BfontColor%3D%23666666%3Balign%3Dleft%3BfontSize%3D17%3BspacingLeft%3D4%3BspacingTop%3D-3%3BwhiteSpace%3Dwrap%3BstrokeColor%3D%23666666%3BmainText%3D%22%20vertex%3D%221%22%20parent%3D%221%22%3E%3CmxGeometry%20x%3D%22731.9399999999999%22%20y%3D%22629%22%20width%3D%22150%22%20height%3D%2220%22%20as%3D%22geometry%22%2F%3E%3C%2FmxCell%3E%3C%2Froot%3E%3C%2FmxGraphModel%3E&lt;/span&gt;" style="rounded=1;arcSize=9;align=left;spacingLeft=5;strokeColor=#B3B3B3;html=1;strokeWidth=2;fontSize=12;sketch=1;hachureGap=4;jiggle=2;curveFitting=1;fontFamily=Architects Daughter;fontSource=https%3A%2F%2Ffonts.googleapis.com%2Fcss%3Ffamily%3DArchitects%2BDaughter;labelBackgroundColor=default;" parent="1" vertex="1">
          <mxGeometry x="146.88" y="1276" width="237.92" height="25" as="geometry" />
        </mxCell>
        <mxCell id="AhlPXchiRFUv19-gY8pR-75" value="" style="shape=mxgraph.signs.healthcare.eye;html=1;pointerEvents=1;fillColor=#000000;strokeColor=none;verticalLabelPosition=bottom;verticalAlign=top;align=center;sketch=1;hachureGap=4;jiggle=2;curveFitting=1;fontFamily=Architects Daughter;fontSource=https%3A%2F%2Ffonts.googleapis.com%2Fcss%3Ffamily%3DArchitects%2BDaughter;" parent="1" vertex="1">
          <mxGeometry x="356.43" y="1279.75" width="24.54" height="17.5" as="geometry" />
        </mxCell>
        <mxCell id="AhlPXchiRFUv19-gY8pR-92" value="&lt;font style=&quot;font-size: 12px;&quot;&gt;Email&lt;sup&gt;&lt;font style=&quot;font-size: 12px;&quot; color=&quot;#ff0000&quot;&gt;*&lt;/font&gt;&lt;/sup&gt;&lt;/font&gt;" style="fillColor=none;strokeColor=none;html=1;fontSize=11;fontStyle=0;align=left;fontColor=#596780;fontStyle=1;fontSize=11;sketch=1;hachureGap=4;jiggle=2;curveFitting=1;fontFamily=Architects Daughter;fontSource=https%3A%2F%2Ffonts.googleapis.com%2Fcss%3Ffamily%3DArchitects%2BDaughter;" parent="1" vertex="1">
          <mxGeometry x="406.54" y="1127.25" width="240" height="20" as="geometry" />
        </mxCell>
        <mxCell id="AhlPXchiRFUv19-gY8pR-93" value="&lt;font style=&quot;font-size: 12px;&quot;&gt;Adress&lt;sup&gt;&lt;font style=&quot;font-size: 12px;&quot; color=&quot;#ff0000&quot;&gt;*&lt;/font&gt;&lt;/sup&gt;&lt;/font&gt;" style="fillColor=none;strokeColor=none;html=1;fontSize=11;fontStyle=0;align=left;fontColor=#596780;fontStyle=1;fontSize=11;sketch=1;hachureGap=4;jiggle=2;curveFitting=1;fontFamily=Architects Daughter;fontSource=https%3A%2F%2Ffonts.googleapis.com%2Fcss%3Ffamily%3DArchitects%2BDaughter;" parent="1" vertex="1">
          <mxGeometry x="406" y="1187.75" width="240" height="20" as="geometry" />
        </mxCell>
        <mxCell id="AhlPXchiRFUv19-gY8pR-94" value="&lt;span style=&quot;color: rgba(0, 0, 0, 0); font-family: monospace; font-size: 0px; background-color: rgb(251, 251, 251);&quot;&gt;%3CmxGraphModel%3E%3Croot%3E%3CmxCell%20id%3D%220%22%2F%3E%3CmxCell%20id%3D%221%22%20parent%3D%220%22%2F%3E%3CmxCell%20id%3D%222%22%20value%3D%22%22%20style%3D%22strokeWidth%3D1%3Bshadow%3D0%3Bdashed%3D0%3Balign%3Dcenter%3Bhtml%3D1%3Bshape%3Dmxgraph.mockup.text.textBox%3BfontColor%3D%23666666%3Balign%3Dleft%3BfontSize%3D17%3BspacingLeft%3D4%3BspacingTop%3D-3%3BwhiteSpace%3Dwrap%3BstrokeColor%3D%23666666%3BmainText%3D%22%20vertex%3D%221%22%20parent%3D%221%22%3E%3CmxGeometry%20x%3D%22731.9399999999999%22%20y%3D%22629%22%20width%3D%22150%22%20height%3D%2220%22%20as%3D%22geometry%22%2F%3E%3C%2FmxCell%3E%3C%2Froot%3E%3C%2FmxGraphModel%3E&lt;/span&gt;" style="rounded=1;arcSize=9;align=left;spacingLeft=5;strokeColor=#B3B3B3;html=1;strokeWidth=2;fontSize=12;sketch=1;hachureGap=4;jiggle=2;curveFitting=1;fontFamily=Architects Daughter;fontSource=https%3A%2F%2Ffonts.googleapis.com%2Fcss%3Ffamily%3DArchitects%2BDaughter;labelBackgroundColor=default;" parent="1" vertex="1">
          <mxGeometry x="408.77000000000004" y="1213.25" width="237.92" height="25" as="geometry" />
        </mxCell>
        <mxCell id="AhlPXchiRFUv19-gY8pR-95" value="&lt;span style=&quot;color: rgba(0, 0, 0, 0); font-family: monospace; font-size: 0px; background-color: rgb(251, 251, 251);&quot;&gt;%3CmxGraphModel%3E%3Croot%3E%3CmxCell%20id%3D%220%22%2F%3E%3CmxCell%20id%3D%221%22%20parent%3D%220%22%2F%3E%3CmxCell%20id%3D%222%22%20value%3D%22%22%20style%3D%22strokeWidth%3D1%3Bshadow%3D0%3Bdashed%3D0%3Balign%3Dcenter%3Bhtml%3D1%3Bshape%3Dmxgraph.mockup.text.textBox%3BfontColor%3D%23666666%3Balign%3Dleft%3BfontSize%3D17%3BspacingLeft%3D4%3BspacingTop%3D-3%3BwhiteSpace%3Dwrap%3BstrokeColor%3D%23666666%3BmainText%3D%22%20vertex%3D%221%22%20parent%3D%221%22%3E%3CmxGeometry%20x%3D%22731.9399999999999%22%20y%3D%22629%22%20width%3D%22150%22%20height%3D%2220%22%20as%3D%22geometry%22%2F%3E%3C%2FmxCell%3E%3C%2Froot%3E%3C%2FmxGraphModel%3E&lt;/span&gt;" style="rounded=1;arcSize=9;align=left;spacingLeft=5;strokeColor=#B3B3B3;html=1;strokeWidth=2;fontSize=12;sketch=1;hachureGap=4;jiggle=2;curveFitting=1;fontFamily=Architects Daughter;fontSource=https%3A%2F%2Ffonts.googleapis.com%2Fcss%3Ffamily%3DArchitects%2BDaughter;labelBackgroundColor=default;" parent="1" vertex="1">
          <mxGeometry x="406.46000000000004" y="1152.25" width="237.92" height="25" as="geometry" />
        </mxCell>
        <mxCell id="AhlPXchiRFUv19-gY8pR-96" value="&lt;font style=&quot;font-size: 12px;&quot;&gt;Cell Phone&lt;sup&gt;&lt;font style=&quot;font-size: 12px;&quot; color=&quot;#ff0000&quot;&gt;*&lt;/font&gt;&lt;/sup&gt;&lt;/font&gt;" style="fillColor=none;strokeColor=none;html=1;fontSize=11;fontStyle=0;align=left;fontColor=#596780;fontStyle=1;fontSize=11;sketch=1;hachureGap=4;jiggle=2;curveFitting=1;fontFamily=Architects Daughter;fontSource=https%3A%2F%2Ffonts.googleapis.com%2Fcss%3Ffamily%3DArchitects%2BDaughter;" parent="1" vertex="1">
          <mxGeometry x="411.33" y="1249.75" width="240" height="20" as="geometry" />
        </mxCell>
        <mxCell id="AhlPXchiRFUv19-gY8pR-97" value="&lt;span style=&quot;color: rgba(0, 0, 0, 0); font-family: monospace; font-size: 0px; background-color: rgb(251, 251, 251);&quot;&gt;%3CmxGraphModel%3E%3Croot%3E%3CmxCell%20id%3D%220%22%2F%3E%3CmxCell%20id%3D%221%22%20parent%3D%220%22%2F%3E%3CmxCell%20id%3D%222%22%20value%3D%22%22%20style%3D%22strokeWidth%3D1%3Bshadow%3D0%3Bdashed%3D0%3Balign%3Dcenter%3Bhtml%3D1%3Bshape%3Dmxgraph.mockup.text.textBox%3BfontColor%3D%23666666%3Balign%3Dleft%3BfontSize%3D17%3BspacingLeft%3D4%3BspacingTop%3D-3%3BwhiteSpace%3Dwrap%3BstrokeColor%3D%23666666%3BmainText%3D%22%20vertex%3D%221%22%20parent%3D%221%22%3E%3CmxGeometry%20x%3D%22731.9399999999999%22%20y%3D%22629%22%20width%3D%22150%22%20height%3D%2220%22%20as%3D%22geometry%22%2F%3E%3C%2FmxCell%3E%3C%2Froot%3E%3C%2FmxGraphModel%3E&lt;/span&gt;" style="rounded=1;arcSize=9;align=left;spacingLeft=5;strokeColor=#B3B3B3;html=1;strokeWidth=2;fontSize=12;sketch=1;hachureGap=4;jiggle=2;curveFitting=1;fontFamily=Architects Daughter;fontSource=https%3A%2F%2Ffonts.googleapis.com%2Fcss%3Ffamily%3DArchitects%2BDaughter;labelBackgroundColor=default;" parent="1" vertex="1">
          <mxGeometry x="414.1" y="1275.25" width="237.92" height="25" as="geometry" />
        </mxCell>
        <mxCell id="AhlPXchiRFUv19-gY8pR-104" value="&lt;span style=&quot;font-size: 24px;&quot;&gt;Menue Page&lt;/span&gt;" style="text;html=1;align=center;verticalAlign=middle;whiteSpace=wrap;rounded=0;" parent="1" vertex="1">
          <mxGeometry x="5.849999999999994" y="1410" width="150.14" height="30" as="geometry" />
        </mxCell>
        <mxCell id="AhlPXchiRFUv19-gY8pR-105" value="" style="rounded=0;whiteSpace=wrap;html=1;sketch=1;hachureGap=4;jiggle=2;curveFitting=1;fontFamily=Architects Daughter;fontSource=https%3A%2F%2Ffonts.googleapis.com%2Fcss%3Ffamily%3DArchitects%2BDaughter;" parent="1" vertex="1">
          <mxGeometry x="5.849999999999996" y="1460" width="693.3" height="390" as="geometry" />
        </mxCell>
        <mxCell id="AhlPXchiRFUv19-gY8pR-128" value="" style="rounded=0;whiteSpace=wrap;html=1;sketch=1;hachureGap=4;jiggle=2;curveFitting=1;fontFamily=Architects Daughter;fontSource=https%3A%2F%2Ffonts.googleapis.com%2Fcss%3Ffamily%3DArchitects%2BDaughter;" parent="1" vertex="1">
          <mxGeometry x="9" y="1460" width="691" height="90" as="geometry" />
        </mxCell>
        <mxCell id="AhlPXchiRFUv19-gY8pR-129" value="Image of&amp;nbsp; a Pizza Logo" style="ellipse;whiteSpace=wrap;html=1;aspect=fixed;sketch=1;hachureGap=4;jiggle=2;curveFitting=1;fontFamily=Architects Daughter;fontSource=https%3A%2F%2Ffonts.googleapis.com%2Fcss%3Ffamily%3DArchitects%2BDaughter;" parent="1" vertex="1">
          <mxGeometry x="24.810000000000002" y="1471.75" width="68.5" height="68.5" as="geometry" />
        </mxCell>
        <mxCell id="AhlPXchiRFUv19-gY8pR-130" value="Search" style="strokeWidth=1;shadow=0;dashed=0;align=center;html=1;shape=mxgraph.mockup.forms.searchBox;strokeColor=#999999;mainText=;strokeColor2=#008cff;fontColor=#666666;fontSize=17;align=left;spacingLeft=3;whiteSpace=wrap;sketch=1;hachureGap=4;jiggle=2;curveFitting=1;fontFamily=Architects Daughter;fontSource=https%3A%2F%2Ffonts.googleapis.com%2Fcss%3Ffamily%3DArchitects%2BDaughter;" parent="1" vertex="1">
          <mxGeometry x="179.31" y="1491" width="303.05" height="35" as="geometry" />
        </mxCell>
        <mxCell id="AhlPXchiRFUv19-gY8pR-131" value="" style="verticalLabelPosition=bottom;shadow=0;dashed=0;align=center;html=1;verticalAlign=top;strokeWidth=1;shape=mxgraph.mockup.misc.shoppingCart;strokeColor=#999999;sketch=1;hachureGap=4;jiggle=2;curveFitting=1;fontFamily=Architects Daughter;fontSource=https%3A%2F%2Ffonts.googleapis.com%2Fcss%3Ffamily%3DArchitects%2BDaughter;" parent="1" vertex="1">
          <mxGeometry x="533.3" y="1481" width="50" height="50" as="geometry" />
        </mxCell>
        <mxCell id="AhlPXchiRFUv19-gY8pR-134" value="" style="outlineConnect=0;dashed=0;verticalLabelPosition=bottom;verticalAlign=top;align=center;html=1;shape=mxgraph.aws3.user;fillColor=#333333;gradientColor=none;sketch=1;hachureGap=4;jiggle=2;curveFitting=1;fontFamily=Architects Daughter;fontSource=https%3A%2F%2Ffonts.googleapis.com%2Fcss%3Ffamily%3DArchitects%2BDaughter;" parent="1" vertex="1">
          <mxGeometry x="620.89" y="1481" width="39.11" height="50" as="geometry" />
        </mxCell>
        <mxCell id="AhlPXchiRFUv19-gY8pR-136" value="1" style="ellipse;whiteSpace=wrap;html=1;aspect=fixed;strokeWidth=2;fontFamily=Tahoma;spacingBottom=4;spacingRight=2;strokeColor=#d3d3d3;sketch=1;hachureGap=4;jiggle=2;curveFitting=1;fontSource=https%3A%2F%2Ffonts.googleapis.com%2Fcss%3Ffamily%3DArchitects%2BDaughter;" parent="1" vertex="1">
          <mxGeometry x="523.88" y="1531" width="11.5" height="11.5" as="geometry" />
        </mxCell>
        <mxCell id="AhlPXchiRFUv19-gY8pR-137" value="" style="rounded=0;whiteSpace=wrap;html=1;sketch=1;hachureGap=4;jiggle=2;curveFitting=1;fontFamily=Architects Daughter;fontSource=https%3A%2F%2Ffonts.googleapis.com%2Fcss%3Ffamily%3DArchitects%2BDaughter;" parent="1" vertex="1">
          <mxGeometry x="5.19" y="1550" width="694.81" height="40" as="geometry" />
        </mxCell>
        <mxCell id="AhlPXchiRFUv19-gY8pR-139" value="All" style="rounded=0;whiteSpace=wrap;html=1;sketch=1;hachureGap=4;jiggle=2;curveFitting=1;fontFamily=Architects Daughter;fontSource=https%3A%2F%2Ffonts.googleapis.com%2Fcss%3Ffamily%3DArchitects%2BDaughter;fillColor=#B3B3B3;" parent="1" vertex="1">
          <mxGeometry x="49.87000000000002" y="1562.85" width="98.4" height="18.3" as="geometry" />
        </mxCell>
        <mxCell id="AhlPXchiRFUv19-gY8pR-140" value="Cat1" style="rounded=0;whiteSpace=wrap;html=1;sketch=1;hachureGap=4;jiggle=2;curveFitting=1;fontFamily=Architects Daughter;fontSource=https%3A%2F%2Ffonts.googleapis.com%2Fcss%3Ffamily%3DArchitects%2BDaughter;" parent="1" vertex="1">
          <mxGeometry x="172.74000000000004" y="1562.85" width="98.4" height="18.3" as="geometry" />
        </mxCell>
        <mxCell id="AhlPXchiRFUv19-gY8pR-141" value="Cat2" style="rounded=0;whiteSpace=wrap;html=1;sketch=1;hachureGap=4;jiggle=2;curveFitting=1;fontFamily=Architects Daughter;fontSource=https%3A%2F%2Ffonts.googleapis.com%2Fcss%3Ffamily%3DArchitects%2BDaughter;" parent="1" vertex="1">
          <mxGeometry x="297.12" y="1560.85" width="98.4" height="18.3" as="geometry" />
        </mxCell>
        <mxCell id="AhlPXchiRFUv19-gY8pR-142" value="Cat3" style="rounded=0;whiteSpace=wrap;html=1;sketch=1;hachureGap=4;jiggle=2;curveFitting=1;fontFamily=Architects Daughter;fontSource=https%3A%2F%2Ffonts.googleapis.com%2Fcss%3Ffamily%3DArchitects%2BDaughter;" parent="1" vertex="1">
          <mxGeometry x="421" y="1560.85" width="98.4" height="18.3" as="geometry" />
        </mxCell>
        <mxCell id="AhlPXchiRFUv19-gY8pR-143" value="Sides" style="rounded=0;whiteSpace=wrap;html=1;sketch=1;hachureGap=4;jiggle=2;curveFitting=1;fontFamily=Architects Daughter;fontSource=https%3A%2F%2Ffonts.googleapis.com%2Fcss%3Ffamily%3DArchitects%2BDaughter;" parent="1" vertex="1">
          <mxGeometry x="544.88" y="1560.85" width="98.4" height="18.3" as="geometry" />
        </mxCell>
        <mxCell id="AhlPXchiRFUv19-gY8pR-145" value="" style="rounded=0;whiteSpace=wrap;html=1;sketch=1;hachureGap=4;jiggle=2;curveFitting=1;fontFamily=Architects Daughter;fontSource=https%3A%2F%2Ffonts.googleapis.com%2Fcss%3Ffamily%3DArchitects%2BDaughter;" parent="1" vertex="1">
          <mxGeometry x="42" y="1630" width="241" height="90" as="geometry" />
        </mxCell>
        <mxCell id="AhlPXchiRFUv19-gY8pR-146" value="Pizza Image" style="ellipse;whiteSpace=wrap;html=1;aspect=fixed;sketch=1;hachureGap=4;jiggle=2;curveFitting=1;fontFamily=Architects Daughter;fontSource=https%3A%2F%2Ffonts.googleapis.com%2Fcss%3Ffamily%3DArchitects%2BDaughter;" parent="1" vertex="1">
          <mxGeometry x="216.63" y="1634" width="60" height="60" as="geometry" />
        </mxCell>
        <mxCell id="AhlPXchiRFUv19-gY8pR-148" value="price" style="text;html=1;align=center;verticalAlign=middle;whiteSpace=wrap;rounded=0;fontFamily=Architects Daughter;fontSource=https%3A%2F%2Ffonts.googleapis.com%2Fcss%3Ffamily%3DArchitects%2BDaughter;" parent="1" vertex="1">
          <mxGeometry x="45.499999999999986" y="1699" width="60" height="20" as="geometry" />
        </mxCell>
        <mxCell id="AhlPXchiRFUv19-gY8pR-149" value="&lt;h1 style=&quot;margin-top: 0px;&quot;&gt;&lt;span style=&quot;font-size: 18px;&quot;&gt;PizzaX&lt;/span&gt;&lt;/h1&gt;&lt;p style=&quot;&quot;&gt;&lt;font style=&quot;font-size: 10px;&quot;&gt;Lorem ipsum dolor sit amet, consectetur adipisicing elit, sed do&amp;nbsp;&lt;/font&gt;&lt;/p&gt;" style="text;html=1;whiteSpace=wrap;overflow=hidden;rounded=0;fontFamily=Architects Daughter;fontSource=https%3A%2F%2Ffonts.googleapis.com%2Fcss%3Ffamily%3DArchitects%2BDaughter;" parent="1" vertex="1">
          <mxGeometry x="42" y="1619" width="180" height="80" as="geometry" />
        </mxCell>
        <mxCell id="AhlPXchiRFUv19-gY8pR-153" value="" style="rounded=0;whiteSpace=wrap;html=1;sketch=1;hachureGap=4;jiggle=2;curveFitting=1;fontFamily=Architects Daughter;fontSource=https%3A%2F%2Ffonts.googleapis.com%2Fcss%3Ffamily%3DArchitects%2BDaughter;" parent="1" vertex="1">
          <mxGeometry x="406.54" y="1630" width="241" height="90" as="geometry" />
        </mxCell>
        <mxCell id="AhlPXchiRFUv19-gY8pR-154" value="Pizza Image" style="ellipse;whiteSpace=wrap;html=1;aspect=fixed;sketch=1;hachureGap=4;jiggle=2;curveFitting=1;fontFamily=Architects Daughter;fontSource=https%3A%2F%2Ffonts.googleapis.com%2Fcss%3Ffamily%3DArchitects%2BDaughter;" parent="1" vertex="1">
          <mxGeometry x="581.1700000000001" y="1634" width="60" height="60" as="geometry" />
        </mxCell>
        <mxCell id="AhlPXchiRFUv19-gY8pR-155" value="price" style="text;html=1;align=center;verticalAlign=middle;whiteSpace=wrap;rounded=0;fontFamily=Architects Daughter;fontSource=https%3A%2F%2Ffonts.googleapis.com%2Fcss%3Ffamily%3DArchitects%2BDaughter;" parent="1" vertex="1">
          <mxGeometry x="410.04" y="1699" width="60" height="20" as="geometry" />
        </mxCell>
        <mxCell id="AhlPXchiRFUv19-gY8pR-156" value="&lt;h1 style=&quot;margin-top: 0px;&quot;&gt;&lt;span style=&quot;font-size: 18px;&quot;&gt;PizzaX&lt;/span&gt;&lt;/h1&gt;&lt;p style=&quot;&quot;&gt;&lt;font style=&quot;font-size: 10px;&quot;&gt;Lorem ipsum dolor sit amet, consectetur adipisicing elit, sed do&amp;nbsp;&lt;/font&gt;&lt;/p&gt;" style="text;html=1;whiteSpace=wrap;overflow=hidden;rounded=0;fontFamily=Architects Daughter;fontSource=https%3A%2F%2Ffonts.googleapis.com%2Fcss%3Ffamily%3DArchitects%2BDaughter;" parent="1" vertex="1">
          <mxGeometry x="406.54" y="1619" width="180" height="80" as="geometry" />
        </mxCell>
        <mxCell id="AhlPXchiRFUv19-gY8pR-157" value="" style="rounded=0;whiteSpace=wrap;html=1;sketch=1;hachureGap=4;jiggle=2;curveFitting=1;fontFamily=Architects Daughter;fontSource=https%3A%2F%2Ffonts.googleapis.com%2Fcss%3Ffamily%3DArchitects%2BDaughter;" parent="1" vertex="1">
          <mxGeometry x="43.38" y="1745" width="241" height="90" as="geometry" />
        </mxCell>
        <mxCell id="AhlPXchiRFUv19-gY8pR-158" value="Pizza Image" style="ellipse;whiteSpace=wrap;html=1;aspect=fixed;sketch=1;hachureGap=4;jiggle=2;curveFitting=1;fontFamily=Architects Daughter;fontSource=https%3A%2F%2Ffonts.googleapis.com%2Fcss%3Ffamily%3DArchitects%2BDaughter;" parent="1" vertex="1">
          <mxGeometry x="218.01" y="1747" width="60" height="60" as="geometry" />
        </mxCell>
        <mxCell id="AhlPXchiRFUv19-gY8pR-159" value="price" style="text;html=1;align=center;verticalAlign=middle;whiteSpace=wrap;rounded=0;fontFamily=Architects Daughter;fontSource=https%3A%2F%2Ffonts.googleapis.com%2Fcss%3Ffamily%3DArchitects%2BDaughter;" parent="1" vertex="1">
          <mxGeometry x="46.87999999999998" y="1812" width="60" height="20" as="geometry" />
        </mxCell>
        <mxCell id="AhlPXchiRFUv19-gY8pR-160" value="&lt;h1 style=&quot;margin-top: 0px;&quot;&gt;&lt;span style=&quot;font-size: 18px;&quot;&gt;PizzaX&lt;/span&gt;&lt;/h1&gt;&lt;p style=&quot;&quot;&gt;&lt;font style=&quot;font-size: 10px;&quot;&gt;Lorem ipsum dolor sit amet, consectetur adipisicing elit, sed do&amp;nbsp;&lt;/font&gt;&lt;/p&gt;" style="text;html=1;whiteSpace=wrap;overflow=hidden;rounded=0;fontFamily=Architects Daughter;fontSource=https%3A%2F%2Ffonts.googleapis.com%2Fcss%3Ffamily%3DArchitects%2BDaughter;" parent="1" vertex="1">
          <mxGeometry x="43.379999999999995" y="1732" width="180" height="80" as="geometry" />
        </mxCell>
        <mxCell id="AhlPXchiRFUv19-gY8pR-161" value="" style="rounded=0;whiteSpace=wrap;html=1;sketch=1;hachureGap=4;jiggle=2;curveFitting=1;fontFamily=Architects Daughter;fontSource=https%3A%2F%2Ffonts.googleapis.com%2Fcss%3Ffamily%3DArchitects%2BDaughter;" parent="1" vertex="1">
          <mxGeometry x="406" y="1745" width="241" height="90" as="geometry" />
        </mxCell>
        <mxCell id="AhlPXchiRFUv19-gY8pR-162" value="Pizza Image" style="ellipse;whiteSpace=wrap;html=1;aspect=fixed;sketch=1;hachureGap=4;jiggle=2;curveFitting=1;fontFamily=Architects Daughter;fontSource=https%3A%2F%2Ffonts.googleapis.com%2Fcss%3Ffamily%3DArchitects%2BDaughter;" parent="1" vertex="1">
          <mxGeometry x="580.6300000000001" y="1747" width="60" height="60" as="geometry" />
        </mxCell>
        <mxCell id="AhlPXchiRFUv19-gY8pR-163" value="price" style="text;html=1;align=center;verticalAlign=middle;whiteSpace=wrap;rounded=0;fontFamily=Architects Daughter;fontSource=https%3A%2F%2Ffonts.googleapis.com%2Fcss%3Ffamily%3DArchitects%2BDaughter;" parent="1" vertex="1">
          <mxGeometry x="409.5" y="1812" width="60" height="20" as="geometry" />
        </mxCell>
        <mxCell id="AhlPXchiRFUv19-gY8pR-164" value="&lt;h1 style=&quot;margin-top: 0px;&quot;&gt;&lt;span style=&quot;font-size: 18px;&quot;&gt;PizzaX&lt;/span&gt;&lt;/h1&gt;&lt;p style=&quot;&quot;&gt;&lt;font style=&quot;font-size: 10px;&quot;&gt;Lorem ipsum dolor sit amet, consectetur adipisicing elit, sed do&amp;nbsp;&lt;/font&gt;&lt;/p&gt;" style="text;html=1;whiteSpace=wrap;overflow=hidden;rounded=0;fontFamily=Architects Daughter;fontSource=https%3A%2F%2Ffonts.googleapis.com%2Fcss%3Ffamily%3DArchitects%2BDaughter;" parent="1" vertex="1">
          <mxGeometry x="406" y="1732" width="180" height="80" as="geometry" />
        </mxCell>
        <mxCell id="AhlPXchiRFUv19-gY8pR-165" value="&lt;font style=&quot;font-size: 10px;&quot;&gt;Sort By&lt;/font&gt;" style="text;html=1;align=center;verticalAlign=middle;whiteSpace=wrap;rounded=0;fontFamily=Architects Daughter;fontSource=https%3A%2F%2Ffonts.googleapis.com%2Fcss%3Ffamily%3DArchitects%2BDaughter;" parent="1" vertex="1">
          <mxGeometry x="587.54" y="1590" width="60" height="30" as="geometry" />
        </mxCell>
        <mxCell id="AhlPXchiRFUv19-gY8pR-167" value="" style="rounded=0;whiteSpace=wrap;html=1;sketch=1;hachureGap=4;jiggle=2;curveFitting=1;fontFamily=Architects Daughter;fontSource=https%3A%2F%2Ffonts.googleapis.com%2Fcss%3Ffamily%3DArchitects%2BDaughter;" parent="1" vertex="1">
          <mxGeometry x="16.44" y="1920" width="237.69" height="470" as="geometry" />
        </mxCell>
        <mxCell id="AhlPXchiRFUv19-gY8pR-168" value="Pizza Image" style="ellipse;whiteSpace=wrap;html=1;aspect=fixed;sketch=1;hachureGap=4;jiggle=2;curveFitting=1;fontFamily=Architects Daughter;fontSource=https%3A%2F%2Ffonts.googleapis.com%2Fcss%3Ffamily%3DArchitects%2BDaughter;" parent="1" vertex="1">
          <mxGeometry x="81.92000000000002" y="1930" width="100" height="100" as="geometry" />
        </mxCell>
        <mxCell id="AhlPXchiRFUv19-gY8pR-169" value="&lt;h1 style=&quot;margin-top: 0px;&quot;&gt;&lt;span style=&quot;font-size: 20px;&quot;&gt;PizzaX&lt;/span&gt;&lt;/h1&gt;&lt;p style=&quot;&quot;&gt;&lt;font style=&quot;font-size: 10px;&quot;&gt;Lorem ipsum dolor sit amet, consectetur adipisicing elit&lt;/font&gt;&lt;span style=&quot;font-size: 11px;&quot;&gt;,&amp;nbsp;&lt;/span&gt;&lt;/p&gt;" style="text;html=1;whiteSpace=wrap;overflow=hidden;rounded=0;fontFamily=Architects Daughter;fontSource=https%3A%2F%2Ffonts.googleapis.com%2Fcss%3Ffamily%3DArchitects%2BDaughter;" parent="1" vertex="1">
          <mxGeometry x="16.439999999999998" y="2040" width="240" height="90" as="geometry" />
        </mxCell>
        <mxCell id="AhlPXchiRFUv19-gY8pR-171" value="&lt;span style=&quot;font-size: 24px;&quot;&gt;Pizza Modal&lt;/span&gt;" style="text;html=1;align=center;verticalAlign=middle;whiteSpace=wrap;rounded=0;" parent="1" vertex="1">
          <mxGeometry x="14.379999999999994" y="1880" width="150.14" height="30" as="geometry" />
        </mxCell>
        <mxCell id="AhlPXchiRFUv19-gY8pR-172" value="" style="rounded=0;whiteSpace=wrap;html=1;sketch=1;hachureGap=4;jiggle=2;curveFitting=1;fontFamily=Architects Daughter;fontSource=https%3A%2F%2Ffonts.googleapis.com%2Fcss%3Ffamily%3DArchitects%2BDaughter;" parent="1" vertex="1">
          <mxGeometry x="18.04" y="2146" width="230.68" height="70" as="geometry" />
        </mxCell>
        <mxCell id="AhlPXchiRFUv19-gY8pR-173" value="&lt;span style=&quot;font-size: 10px;&quot;&gt;&lt;b&gt;Toppings&lt;/b&gt;&lt;/span&gt;" style="text;html=1;align=center;verticalAlign=middle;whiteSpace=wrap;rounded=0;fontFamily=Architects Daughter;fontSource=https%3A%2F%2Ffonts.googleapis.com%2Fcss%3Ffamily%3DArchitects%2BDaughter;" parent="1" vertex="1">
          <mxGeometry x="14.379999999999992" y="2116" width="60" height="30" as="geometry" />
        </mxCell>
        <mxCell id="AhlPXchiRFUv19-gY8pR-174" value="&lt;font style=&quot;font-size: 10px;&quot;&gt;Topping 1&lt;/font&gt;" style="rounded=1;fillColor=#F0F2F5;strokeColor=#D8DCE3;align=left;verticalAlign=middle;fontStyle=0;fontSize=12;labelPosition=right;verticalLabelPosition=middle;spacingLeft=10;html=1;shadow=0;dashed=0;sketch=1;hachureGap=4;jiggle=2;curveFitting=1;fontFamily=Architects Daughter;fontSource=https%3A%2F%2Ffonts.googleapis.com%2Fcss%3Ffamily%3DArchitects%2BDaughter;" parent="1" vertex="1">
          <mxGeometry x="25.310000000000002" y="2160" width="12" height="12" as="geometry" />
        </mxCell>
        <mxCell id="AhlPXchiRFUv19-gY8pR-175" value="&lt;font style=&quot;font-size: 10px;&quot;&gt;Topping 2&lt;/font&gt;" style="rounded=1;fillColor=#F0F2F5;strokeColor=#D8DCE3;align=left;verticalAlign=middle;fontStyle=0;fontSize=12;labelPosition=right;verticalLabelPosition=middle;spacingLeft=10;html=1;shadow=0;dashed=0;sketch=1;hachureGap=4;jiggle=2;curveFitting=1;fontFamily=Architects Daughter;fontSource=https%3A%2F%2Ffonts.googleapis.com%2Fcss%3Ffamily%3DArchitects%2BDaughter;" parent="1" vertex="1">
          <mxGeometry x="24.810000000000002" y="2190" width="12" height="12" as="geometry" />
        </mxCell>
        <mxCell id="AhlPXchiRFUv19-gY8pR-178" value="" style="rounded=0;whiteSpace=wrap;html=1;sketch=1;hachureGap=4;jiggle=2;curveFitting=1;fontFamily=Architects Daughter;fontSource=https%3A%2F%2Ffonts.googleapis.com%2Fcss%3Ffamily%3DArchitects%2BDaughter;" parent="1" vertex="1">
          <mxGeometry x="19.77" y="2246" width="230.68" height="70" as="geometry" />
        </mxCell>
        <mxCell id="AhlPXchiRFUv19-gY8pR-179" value="&lt;span style=&quot;font-size: 10px;&quot;&gt;&lt;b&gt;Removable&lt;/b&gt;&lt;/span&gt;" style="text;html=1;align=center;verticalAlign=middle;whiteSpace=wrap;rounded=0;fontFamily=Architects Daughter;fontSource=https%3A%2F%2Ffonts.googleapis.com%2Fcss%3Ffamily%3DArchitects%2BDaughter;" parent="1" vertex="1">
          <mxGeometry x="16.109999999999992" y="2216" width="60" height="30" as="geometry" />
        </mxCell>
        <mxCell id="AhlPXchiRFUv19-gY8pR-183" value="&lt;font style=&quot;font-size: 10px;&quot;&gt;Removable 1&lt;/font&gt;" style="rounded=1;fillColor=#F0F2F5;strokeColor=#D8DCE3;align=left;verticalAlign=middle;fontStyle=0;fontSize=12;labelPosition=right;verticalLabelPosition=middle;spacingLeft=10;html=1;shadow=0;dashed=0;sketch=1;hachureGap=4;jiggle=2;curveFitting=1;fontFamily=Architects Daughter;fontSource=https%3A%2F%2Ffonts.googleapis.com%2Fcss%3Ffamily%3DArchitects%2BDaughter;" parent="1" vertex="1">
          <mxGeometry x="25.810000000000002" y="2260" width="12" height="12" as="geometry" />
        </mxCell>
        <mxCell id="AhlPXchiRFUv19-gY8pR-184" value="&lt;font style=&quot;font-size: 10px;&quot;&gt;Removable 2&lt;/font&gt;" style="rounded=1;fillColor=#F0F2F5;strokeColor=#D8DCE3;align=left;verticalAlign=middle;fontStyle=0;fontSize=12;labelPosition=right;verticalLabelPosition=middle;spacingLeft=10;html=1;shadow=0;dashed=0;sketch=1;hachureGap=4;jiggle=2;curveFitting=1;fontFamily=Architects Daughter;fontSource=https%3A%2F%2Ffonts.googleapis.com%2Fcss%3Ffamily%3DArchitects%2BDaughter;" parent="1" vertex="1">
          <mxGeometry x="25.310000000000002" y="2290" width="12" height="12" as="geometry" />
        </mxCell>
        <mxCell id="AhlPXchiRFUv19-gY8pR-185" value="&lt;font style=&quot;font-size: 10px;&quot;&gt;Price&lt;/font&gt;" style="text;html=1;align=center;verticalAlign=middle;whiteSpace=wrap;rounded=0;fontFamily=Architects Daughter;fontSource=https%3A%2F%2Ffonts.googleapis.com%2Fcss%3Ffamily%3DArchitects%2BDaughter;" parent="1" vertex="1">
          <mxGeometry x="188.72000000000003" y="2151" width="60" height="30" as="geometry" />
        </mxCell>
        <mxCell id="AhlPXchiRFUv19-gY8pR-186" value="&lt;font style=&quot;font-size: 10px;&quot;&gt;Price&lt;/font&gt;" style="text;html=1;align=center;verticalAlign=middle;whiteSpace=wrap;rounded=0;fontFamily=Architects Daughter;fontSource=https%3A%2F%2Ffonts.googleapis.com%2Fcss%3Ffamily%3DArchitects%2BDaughter;" parent="1" vertex="1">
          <mxGeometry x="187.31000000000003" y="2181" width="60" height="30" as="geometry" />
        </mxCell>
        <mxCell id="AhlPXchiRFUv19-gY8pR-187" value="&lt;font style=&quot;font-size: 10px;&quot;&gt;Price&lt;/font&gt;" style="text;html=1;align=center;verticalAlign=middle;whiteSpace=wrap;rounded=0;fontFamily=Architects Daughter;fontSource=https%3A%2F%2Ffonts.googleapis.com%2Fcss%3Ffamily%3DArchitects%2BDaughter;" parent="1" vertex="1">
          <mxGeometry x="188.02000000000004" y="2251" width="60" height="30" as="geometry" />
        </mxCell>
        <mxCell id="AhlPXchiRFUv19-gY8pR-188" value="&lt;font style=&quot;font-size: 10px;&quot;&gt;Price&lt;/font&gt;" style="text;html=1;align=center;verticalAlign=middle;whiteSpace=wrap;rounded=0;fontFamily=Architects Daughter;fontSource=https%3A%2F%2Ffonts.googleapis.com%2Fcss%3Ffamily%3DArchitects%2BDaughter;" parent="1" vertex="1">
          <mxGeometry x="186.61000000000004" y="2281" width="60" height="30" as="geometry" />
        </mxCell>
        <mxCell id="AhlPXchiRFUv19-gY8pR-189" value="Add To Order &quot;Price&quot;" style="rounded=1;html=1;shadow=0;dashed=0;whiteSpace=wrap;fontSize=10;fillColor=#E6E6E6;align=center;strokeColor=#E6E6E6;fontColor=#333333;sketch=1;hachureGap=4;jiggle=2;curveFitting=1;fontFamily=Architects Daughter;fontSource=https%3A%2F%2Ffonts.googleapis.com%2Fcss%3Ffamily%3DArchitects%2BDaughter;" parent="1" vertex="1">
          <mxGeometry x="18.04" y="2370" width="231.96" height="16.88" as="geometry" />
        </mxCell>
        <mxCell id="AhlPXchiRFUv19-gY8pR-190" value="1" style="ellipse;whiteSpace=wrap;html=1;aspect=fixed;strokeWidth=2;fontFamily=Tahoma;spacingBottom=4;spacingRight=2;strokeColor=#d3d3d3;sketch=1;hachureGap=4;jiggle=2;curveFitting=1;fontSource=https%3A%2F%2Ffonts.googleapis.com%2Fcss%3Ffamily%3DArchitects%2BDaughter;" parent="1" vertex="1">
          <mxGeometry x="118.78" y="2338" width="20" height="20" as="geometry" />
        </mxCell>
        <mxCell id="AhlPXchiRFUv19-gY8pR-191" value="+" style="ellipse;whiteSpace=wrap;html=1;aspect=fixed;sketch=1;hachureGap=4;jiggle=2;curveFitting=1;fontFamily=Architects Daughter;fontSource=https%3A%2F%2Ffonts.googleapis.com%2Fcss%3Ffamily%3DArchitects%2BDaughter;" parent="1" vertex="1">
          <mxGeometry x="155.98999999999998" y="2335.5" width="25" height="25" as="geometry" />
        </mxCell>
        <mxCell id="AhlPXchiRFUv19-gY8pR-192" value="-" style="ellipse;whiteSpace=wrap;html=1;aspect=fixed;sketch=1;hachureGap=4;jiggle=2;curveFitting=1;fontFamily=Architects Daughter;fontSource=https%3A%2F%2Ffonts.googleapis.com%2Fcss%3Ffamily%3DArchitects%2BDaughter;" parent="1" vertex="1">
          <mxGeometry x="76.94999999999999" y="2335.5" width="25" height="25" as="geometry" />
        </mxCell>
        <mxCell id="AhlPXchiRFUv19-gY8pR-193" value="" style="endArrow=classic;html=1;rounded=0;strokeColor=#FFFFFF;" parent="1" edge="1">
          <mxGeometry width="50" height="50" relative="1" as="geometry">
            <mxPoint x="477.85999999999996" y="2166.88" as="sourcePoint" />
            <mxPoint x="457.85999999999996" y="2166.46" as="targetPoint" />
          </mxGeometry>
        </mxCell>
        <mxCell id="AhlPXchiRFUv19-gY8pR-194" value="" style="rounded=0;whiteSpace=wrap;html=1;sketch=1;hachureGap=4;jiggle=2;curveFitting=1;fontFamily=Architects Daughter;fontSource=https%3A%2F%2Ffonts.googleapis.com%2Fcss%3Ffamily%3DArchitects%2BDaughter;" parent="1" vertex="1">
          <mxGeometry x="412.36" y="1916.88" width="237.69" height="283.12" as="geometry" />
        </mxCell>
        <mxCell id="AhlPXchiRFUv19-gY8pR-195" value="Side Image" style="ellipse;whiteSpace=wrap;html=1;aspect=fixed;sketch=1;hachureGap=4;jiggle=2;curveFitting=1;fontFamily=Architects Daughter;fontSource=https%3A%2F%2Ffonts.googleapis.com%2Fcss%3Ffamily%3DArchitects%2BDaughter;" parent="1" vertex="1">
          <mxGeometry x="477.84" y="1926.88" width="100" height="100" as="geometry" />
        </mxCell>
        <mxCell id="AhlPXchiRFUv19-gY8pR-196" value="&lt;h1 style=&quot;margin-top: 0px;&quot;&gt;&lt;span style=&quot;font-size: 20px;&quot;&gt;SideX&lt;/span&gt;&lt;/h1&gt;&lt;p style=&quot;&quot;&gt;&lt;font style=&quot;font-size: 10px;&quot;&gt;Lorem ipsum dolor sit amet, consectetur adipisicing elit&lt;/font&gt;&lt;span style=&quot;font-size: 11px;&quot;&gt;,&amp;nbsp;&lt;/span&gt;&lt;/p&gt;" style="text;html=1;whiteSpace=wrap;overflow=hidden;rounded=0;fontFamily=Architects Daughter;fontSource=https%3A%2F%2Ffonts.googleapis.com%2Fcss%3Ffamily%3DArchitects%2BDaughter;" parent="1" vertex="1">
          <mxGeometry x="412.35999999999996" y="2036.88" width="240" height="90" as="geometry" />
        </mxCell>
        <mxCell id="AhlPXchiRFUv19-gY8pR-197" value="&lt;span style=&quot;font-size: 24px;&quot;&gt;Side Modal&lt;/span&gt;" style="text;html=1;align=center;verticalAlign=middle;whiteSpace=wrap;rounded=0;" parent="1" vertex="1">
          <mxGeometry x="410.29999999999995" y="1876.88" width="150.14" height="30" as="geometry" />
        </mxCell>
        <mxCell id="AhlPXchiRFUv19-gY8pR-210" value="Add To Order &quot;Price&quot;" style="rounded=1;html=1;shadow=0;dashed=0;whiteSpace=wrap;fontSize=10;fillColor=#E6E6E6;align=center;strokeColor=#E6E6E6;fontColor=#333333;sketch=1;hachureGap=4;jiggle=2;curveFitting=1;fontFamily=Architects Daughter;fontSource=https%3A%2F%2Ffonts.googleapis.com%2Fcss%3Ffamily%3DArchitects%2BDaughter;" parent="1" vertex="1">
          <mxGeometry x="413.96" y="2162.88" width="231.96" height="16.88" as="geometry" />
        </mxCell>
        <mxCell id="AhlPXchiRFUv19-gY8pR-211" value="1" style="ellipse;whiteSpace=wrap;html=1;aspect=fixed;strokeWidth=2;fontFamily=Tahoma;spacingBottom=4;spacingRight=2;strokeColor=#d3d3d3;sketch=1;hachureGap=4;jiggle=2;curveFitting=1;fontSource=https%3A%2F%2Ffonts.googleapis.com%2Fcss%3Ffamily%3DArchitects%2BDaughter;" parent="1" vertex="1">
          <mxGeometry x="514.6999999999999" y="2130.88" width="20" height="20" as="geometry" />
        </mxCell>
        <mxCell id="AhlPXchiRFUv19-gY8pR-212" value="+" style="ellipse;whiteSpace=wrap;html=1;aspect=fixed;sketch=1;hachureGap=4;jiggle=2;curveFitting=1;fontFamily=Architects Daughter;fontSource=https%3A%2F%2Ffonts.googleapis.com%2Fcss%3Ffamily%3DArchitects%2BDaughter;" parent="1" vertex="1">
          <mxGeometry x="551.9099999999999" y="2128.38" width="25" height="25" as="geometry" />
        </mxCell>
        <mxCell id="AhlPXchiRFUv19-gY8pR-213" value="-" style="ellipse;whiteSpace=wrap;html=1;aspect=fixed;sketch=1;hachureGap=4;jiggle=2;curveFitting=1;fontFamily=Architects Daughter;fontSource=https%3A%2F%2Ffonts.googleapis.com%2Fcss%3Ffamily%3DArchitects%2BDaughter;" parent="1" vertex="1">
          <mxGeometry x="472.86999999999995" y="2128.38" width="25" height="25" as="geometry" />
        </mxCell>
        <mxCell id="AhlPXchiRFUv19-gY8pR-214" value="&lt;span style=&quot;font-size: 24px;&quot;&gt;Cart Page&lt;/span&gt;" style="text;html=1;align=center;verticalAlign=middle;whiteSpace=wrap;rounded=0;" parent="1" vertex="1">
          <mxGeometry x="22.81" y="2440" width="125.46" height="30" as="geometry" />
        </mxCell>
        <mxCell id="AhlPXchiRFUv19-gY8pR-215" value="" style="rounded=0;whiteSpace=wrap;html=1;sketch=1;hachureGap=4;jiggle=2;curveFitting=1;fontFamily=Architects Daughter;fontSource=https%3A%2F%2Ffonts.googleapis.com%2Fcss%3Ffamily%3DArchitects%2BDaughter;" parent="1" vertex="1">
          <mxGeometry x="17.799999999999933" y="2476" width="693.3" height="390" as="geometry" />
        </mxCell>
        <mxCell id="AhlPXchiRFUv19-gY8pR-216" value="" style="rounded=0;whiteSpace=wrap;html=1;sketch=1;hachureGap=4;jiggle=2;curveFitting=1;fontFamily=Architects Daughter;fontSource=https%3A%2F%2Ffonts.googleapis.com%2Fcss%3Ffamily%3DArchitects%2BDaughter;" parent="1" vertex="1">
          <mxGeometry x="20.84999999999991" y="2480" width="691" height="90" as="geometry" />
        </mxCell>
        <mxCell id="AhlPXchiRFUv19-gY8pR-217" value="Image of&amp;nbsp; a Pizza Logo" style="ellipse;whiteSpace=wrap;html=1;aspect=fixed;sketch=1;hachureGap=4;jiggle=2;curveFitting=1;fontFamily=Architects Daughter;fontSource=https%3A%2F%2Ffonts.googleapis.com%2Fcss%3Ffamily%3DArchitects%2BDaughter;" parent="1" vertex="1">
          <mxGeometry x="36.659999999999854" y="2491.75" width="68.5" height="68.5" as="geometry" />
        </mxCell>
        <mxCell id="AhlPXchiRFUv19-gY8pR-218" value="Search" style="strokeWidth=1;shadow=0;dashed=0;align=center;html=1;shape=mxgraph.mockup.forms.searchBox;strokeColor=#999999;mainText=;strokeColor2=#008cff;fontColor=#666666;fontSize=17;align=left;spacingLeft=3;whiteSpace=wrap;sketch=1;hachureGap=4;jiggle=2;curveFitting=1;fontFamily=Architects Daughter;fontSource=https%3A%2F%2Ffonts.googleapis.com%2Fcss%3Ffamily%3DArchitects%2BDaughter;" parent="1" vertex="1">
          <mxGeometry x="191.15999999999985" y="2511" width="303.05" height="35" as="geometry" />
        </mxCell>
        <mxCell id="AhlPXchiRFUv19-gY8pR-219" value="" style="verticalLabelPosition=bottom;shadow=0;dashed=0;align=center;html=1;verticalAlign=top;strokeWidth=1;shape=mxgraph.mockup.misc.shoppingCart;strokeColor=#999999;sketch=1;hachureGap=4;jiggle=2;curveFitting=1;fontFamily=Architects Daughter;fontSource=https%3A%2F%2Ffonts.googleapis.com%2Fcss%3Ffamily%3DArchitects%2BDaughter;" parent="1" vertex="1">
          <mxGeometry x="545.1499999999999" y="2501" width="50" height="50" as="geometry" />
        </mxCell>
        <mxCell id="AhlPXchiRFUv19-gY8pR-220" value="" style="outlineConnect=0;dashed=0;verticalLabelPosition=bottom;verticalAlign=top;align=center;html=1;shape=mxgraph.aws3.user;fillColor=#333333;gradientColor=none;sketch=1;hachureGap=4;jiggle=2;curveFitting=1;fontFamily=Architects Daughter;fontSource=https%3A%2F%2Ffonts.googleapis.com%2Fcss%3Ffamily%3DArchitects%2BDaughter;" parent="1" vertex="1">
          <mxGeometry x="632.7399999999998" y="2501" width="39.11" height="50" as="geometry" />
        </mxCell>
        <mxCell id="AhlPXchiRFUv19-gY8pR-221" value="1" style="ellipse;whiteSpace=wrap;html=1;aspect=fixed;strokeWidth=2;fontFamily=Tahoma;spacingBottom=4;spacingRight=2;strokeColor=#d3d3d3;sketch=1;hachureGap=4;jiggle=2;curveFitting=1;fontSource=https%3A%2F%2Ffonts.googleapis.com%2Fcss%3Ffamily%3DArchitects%2BDaughter;" parent="1" vertex="1">
          <mxGeometry x="535.73" y="2551" width="11.5" height="11.5" as="geometry" />
        </mxCell>
        <mxCell id="AhlPXchiRFUv19-gY8pR-269" value="" style="rounded=0;whiteSpace=wrap;html=1;sketch=1;hachureGap=4;jiggle=2;curveFitting=1;fontFamily=Architects Daughter;fontSource=https%3A%2F%2Ffonts.googleapis.com%2Fcss%3Ffamily%3DArchitects%2BDaughter;" parent="1" vertex="1">
          <mxGeometry x="42.88" y="2583" width="216.12" height="141" as="geometry" />
        </mxCell>
        <mxCell id="AhlPXchiRFUv19-gY8pR-270" value="&lt;font style=&quot;font-size: 15px;&quot;&gt;2x&lt;/font&gt;" style="text;html=1;align=center;verticalAlign=middle;whiteSpace=wrap;rounded=0;fontFamily=Architects Daughter;fontSource=https%3A%2F%2Ffonts.googleapis.com%2Fcss%3Ffamily%3DArchitects%2BDaughter;" parent="1" vertex="1">
          <mxGeometry x="43.08" y="2588.5" width="33.68" height="19" as="geometry" />
        </mxCell>
        <mxCell id="AhlPXchiRFUv19-gY8pR-271" value="&lt;font style=&quot;font-size: 15px;&quot;&gt;Pizza X&lt;/font&gt;" style="text;html=1;align=center;verticalAlign=middle;whiteSpace=wrap;rounded=0;fontFamily=Architects Daughter;fontSource=https%3A%2F%2Ffonts.googleapis.com%2Fcss%3Ffamily%3DArchitects%2BDaughter;" parent="1" vertex="1">
          <mxGeometry x="72.30999999999999" y="2585.5" width="74.59" height="25" as="geometry" />
        </mxCell>
        <mxCell id="AhlPXchiRFUv19-gY8pR-272" value="Toppings:" style="text;html=1;align=center;verticalAlign=middle;whiteSpace=wrap;rounded=0;fontFamily=Architects Daughter;fontSource=https%3A%2F%2Ffonts.googleapis.com%2Fcss%3Ffamily%3DArchitects%2BDaughter;" parent="1" vertex="1">
          <mxGeometry x="45.41" y="2607" width="60" height="30" as="geometry" />
        </mxCell>
        <mxCell id="AhlPXchiRFUv19-gY8pR-273" value="Removable:" style="text;html=1;align=center;verticalAlign=middle;whiteSpace=wrap;rounded=0;fontFamily=Architects Daughter;fontSource=https%3A%2F%2Ffonts.googleapis.com%2Fcss%3Ffamily%3DArchitects%2BDaughter;" parent="1" vertex="1">
          <mxGeometry x="46.540000000000006" y="2646" width="60" height="30" as="geometry" />
        </mxCell>
        <mxCell id="AhlPXchiRFUv19-gY8pR-274" value="&lt;font style=&quot;font-size: 9px;&quot;&gt;Topping List&lt;/font&gt;" style="text;html=1;align=center;verticalAlign=middle;whiteSpace=wrap;rounded=0;fontFamily=Architects Daughter;fontSource=https%3A%2F%2Ffonts.googleapis.com%2Fcss%3Ffamily%3DArchitects%2BDaughter;" parent="1" vertex="1">
          <mxGeometry x="47.02" y="2629" width="57.84" height="21" as="geometry" />
        </mxCell>
        <mxCell id="AhlPXchiRFUv19-gY8pR-275" value="&lt;font style=&quot;font-size: 9px;&quot;&gt;Removable List&lt;/font&gt;" style="text;html=1;align=center;verticalAlign=middle;whiteSpace=wrap;rounded=0;fontFamily=Architects Daughter;fontSource=https%3A%2F%2Ffonts.googleapis.com%2Fcss%3Ffamily%3DArchitects%2BDaughter;" parent="1" vertex="1">
          <mxGeometry x="43.96" y="2668.5" width="70" height="21" as="geometry" />
        </mxCell>
        <mxCell id="AhlPXchiRFUv19-gY8pR-276" value="&lt;font style=&quot;font-size: 11px;&quot;&gt;&quot;Price&quot;&lt;/font&gt;" style="text;html=1;align=center;verticalAlign=middle;whiteSpace=wrap;rounded=0;fontFamily=Architects Daughter;fontSource=https%3A%2F%2Ffonts.googleapis.com%2Fcss%3Ffamily%3DArchitects%2BDaughter;" parent="1" vertex="1">
          <mxGeometry x="201" y="2585.5" width="44.13" height="28.5" as="geometry" />
        </mxCell>
        <mxCell id="AhlPXchiRFUv19-gY8pR-277" value="" style="html=1;verticalLabelPosition=bottom;align=center;labelBackgroundColor=#ffffff;verticalAlign=top;strokeWidth=2;strokeColor=#B3B3B3;shadow=0;dashed=0;shape=mxgraph.ios7.icons.trashcan;sketch=1;hachureGap=4;jiggle=2;curveFitting=1;fontFamily=Architects Daughter;fontSource=https%3A%2F%2Ffonts.googleapis.com%2Fcss%3Ffamily%3DArchitects%2BDaughter;" parent="1" vertex="1">
          <mxGeometry x="185.9" y="2689.5" width="20.89" height="24" as="geometry" />
        </mxCell>
        <mxCell id="AhlPXchiRFUv19-gY8pR-279" value="" style="html=1;dashed=0;aspect=fixed;verticalLabelPosition=bottom;verticalAlign=top;align=center;shape=mxgraph.gmdl.edit;strokeColor=none;fillColor=#737373;shadow=0;sketch=0;hachureGap=4;jiggle=2;curveFitting=1;fontFamily=Architects Daughter;fontSource=https%3A%2F%2Ffonts.googleapis.com%2Fcss%3Ffamily%3DArchitects%2BDaughter;" parent="1" vertex="1">
          <mxGeometry x="229.01" y="2693.5" width="20" height="20" as="geometry" />
        </mxCell>
        <mxCell id="AhlPXchiRFUv19-gY8pR-301" value="" style="rounded=0;whiteSpace=wrap;html=1;sketch=1;hachureGap=4;jiggle=2;curveFitting=1;fontFamily=Architects Daughter;fontSource=https%3A%2F%2Ffonts.googleapis.com%2Fcss%3Ffamily%3DArchitects%2BDaughter;" parent="1" vertex="1">
          <mxGeometry x="440.01" y="2584" width="216.12" height="141" as="geometry" />
        </mxCell>
        <mxCell id="AhlPXchiRFUv19-gY8pR-302" value="&lt;font style=&quot;font-size: 15px;&quot;&gt;2x&lt;/font&gt;" style="text;html=1;align=center;verticalAlign=middle;whiteSpace=wrap;rounded=0;fontFamily=Architects Daughter;fontSource=https%3A%2F%2Ffonts.googleapis.com%2Fcss%3Ffamily%3DArchitects%2BDaughter;" parent="1" vertex="1">
          <mxGeometry x="440.21000000000004" y="2589.5" width="33.68" height="19" as="geometry" />
        </mxCell>
        <mxCell id="AhlPXchiRFUv19-gY8pR-303" value="&lt;font style=&quot;font-size: 15px;&quot;&gt;Pizza X&lt;/font&gt;" style="text;html=1;align=center;verticalAlign=middle;whiteSpace=wrap;rounded=0;fontFamily=Architects Daughter;fontSource=https%3A%2F%2Ffonts.googleapis.com%2Fcss%3Ffamily%3DArchitects%2BDaughter;" parent="1" vertex="1">
          <mxGeometry x="469.43999999999994" y="2586.5" width="74.59" height="25" as="geometry" />
        </mxCell>
        <mxCell id="AhlPXchiRFUv19-gY8pR-304" value="Toppings:" style="text;html=1;align=center;verticalAlign=middle;whiteSpace=wrap;rounded=0;fontFamily=Architects Daughter;fontSource=https%3A%2F%2Ffonts.googleapis.com%2Fcss%3Ffamily%3DArchitects%2BDaughter;" parent="1" vertex="1">
          <mxGeometry x="442.53999999999996" y="2608" width="60" height="30" as="geometry" />
        </mxCell>
        <mxCell id="AhlPXchiRFUv19-gY8pR-305" value="Removable:" style="text;html=1;align=center;verticalAlign=middle;whiteSpace=wrap;rounded=0;fontFamily=Architects Daughter;fontSource=https%3A%2F%2Ffonts.googleapis.com%2Fcss%3Ffamily%3DArchitects%2BDaughter;" parent="1" vertex="1">
          <mxGeometry x="443.66999999999996" y="2647" width="60" height="30" as="geometry" />
        </mxCell>
        <mxCell id="AhlPXchiRFUv19-gY8pR-306" value="&lt;font style=&quot;font-size: 9px;&quot;&gt;Topping List&lt;/font&gt;" style="text;html=1;align=center;verticalAlign=middle;whiteSpace=wrap;rounded=0;fontFamily=Architects Daughter;fontSource=https%3A%2F%2Ffonts.googleapis.com%2Fcss%3Ffamily%3DArchitects%2BDaughter;" parent="1" vertex="1">
          <mxGeometry x="444.15" y="2630" width="57.84" height="21" as="geometry" />
        </mxCell>
        <mxCell id="AhlPXchiRFUv19-gY8pR-307" value="&lt;font style=&quot;font-size: 9px;&quot;&gt;Removable List&lt;/font&gt;" style="text;html=1;align=center;verticalAlign=middle;whiteSpace=wrap;rounded=0;fontFamily=Architects Daughter;fontSource=https%3A%2F%2Ffonts.googleapis.com%2Fcss%3Ffamily%3DArchitects%2BDaughter;" parent="1" vertex="1">
          <mxGeometry x="441.09000000000003" y="2669.5" width="70" height="21" as="geometry" />
        </mxCell>
        <mxCell id="AhlPXchiRFUv19-gY8pR-308" value="&lt;font style=&quot;font-size: 11px;&quot;&gt;&quot;Price&quot;&lt;/font&gt;" style="text;html=1;align=center;verticalAlign=middle;whiteSpace=wrap;rounded=0;fontFamily=Architects Daughter;fontSource=https%3A%2F%2Ffonts.googleapis.com%2Fcss%3Ffamily%3DArchitects%2BDaughter;" parent="1" vertex="1">
          <mxGeometry x="598.13" y="2586.5" width="44.13" height="28.5" as="geometry" />
        </mxCell>
        <mxCell id="AhlPXchiRFUv19-gY8pR-309" value="" style="html=1;verticalLabelPosition=bottom;align=center;labelBackgroundColor=#ffffff;verticalAlign=top;strokeWidth=2;strokeColor=#B3B3B3;shadow=0;dashed=0;shape=mxgraph.ios7.icons.trashcan;sketch=1;hachureGap=4;jiggle=2;curveFitting=1;fontFamily=Architects Daughter;fontSource=https%3A%2F%2Ffonts.googleapis.com%2Fcss%3Ffamily%3DArchitects%2BDaughter;" parent="1" vertex="1">
          <mxGeometry x="583.03" y="2690.5" width="20.89" height="24" as="geometry" />
        </mxCell>
        <mxCell id="AhlPXchiRFUv19-gY8pR-310" value="" style="html=1;dashed=0;aspect=fixed;verticalLabelPosition=bottom;verticalAlign=top;align=center;shape=mxgraph.gmdl.edit;strokeColor=none;fillColor=#737373;shadow=0;sketch=0;hachureGap=4;jiggle=2;curveFitting=1;fontFamily=Architects Daughter;fontSource=https%3A%2F%2Ffonts.googleapis.com%2Fcss%3Ffamily%3DArchitects%2BDaughter;" parent="1" vertex="1">
          <mxGeometry x="626.14" y="2694.5" width="20" height="20" as="geometry" />
        </mxCell>
        <mxCell id="AhlPXchiRFUv19-gY8pR-311" value="CHECKOUT &quot;Price&quot;" style="rounded=1;html=1;shadow=0;dashed=0;whiteSpace=wrap;fontSize=10;fillColor=#E6E6E6;align=center;strokeColor=#E6E6E6;fontColor=#333333;sketch=1;hachureGap=4;jiggle=2;curveFitting=1;fontFamily=Architects Daughter;fontSource=https%3A%2F%2Ffonts.googleapis.com%2Fcss%3Ffamily%3DArchitects%2BDaughter;" parent="1" vertex="1">
          <mxGeometry x="242.6" y="2825.62" width="220" height="16.88" as="geometry" />
        </mxCell>
        <mxCell id="AhlPXchiRFUv19-gY8pR-314" value="&lt;span style=&quot;font-size: 24px;&quot;&gt;User Profile Page/Track Order&lt;/span&gt;" style="text;html=1;align=center;verticalAlign=middle;whiteSpace=wrap;rounded=0;" parent="1" vertex="1">
          <mxGeometry x="13.53" y="2890" width="336.47" height="30" as="geometry" />
        </mxCell>
        <mxCell id="AhlPXchiRFUv19-gY8pR-315" value="" style="rounded=0;whiteSpace=wrap;html=1;sketch=1;hachureGap=4;jiggle=2;curveFitting=1;fontFamily=Architects Daughter;fontSource=https%3A%2F%2Ffonts.googleapis.com%2Fcss%3Ffamily%3DArchitects%2BDaughter;" parent="1" vertex="1">
          <mxGeometry x="10" y="2940" width="699.98" height="390" as="geometry" />
        </mxCell>
        <mxCell id="AhlPXchiRFUv19-gY8pR-316" value="" style="rounded=0;whiteSpace=wrap;html=1;sketch=1;hachureGap=4;jiggle=2;curveFitting=1;fontFamily=Architects Daughter;fontSource=https%3A%2F%2Ffonts.googleapis.com%2Fcss%3Ffamily%3DArchitects%2BDaughter;" parent="1" vertex="1">
          <mxGeometry x="10" y="2940" width="697.68" height="90" as="geometry" />
        </mxCell>
        <mxCell id="AhlPXchiRFUv19-gY8pR-317" value="Image of&amp;nbsp; a Pizza Logo" style="ellipse;whiteSpace=wrap;html=1;aspect=fixed;sketch=1;hachureGap=4;jiggle=2;curveFitting=1;fontFamily=Architects Daughter;fontSource=https%3A%2F%2Ffonts.googleapis.com%2Fcss%3Ffamily%3DArchitects%2BDaughter;" parent="1" vertex="1">
          <mxGeometry x="32.49" y="2951.75" width="68.5" height="68.5" as="geometry" />
        </mxCell>
        <mxCell id="AhlPXchiRFUv19-gY8pR-318" value="Search" style="strokeWidth=1;shadow=0;dashed=0;align=center;html=1;shape=mxgraph.mockup.forms.searchBox;strokeColor=#999999;mainText=;strokeColor2=#008cff;fontColor=#666666;fontSize=17;align=left;spacingLeft=3;whiteSpace=wrap;sketch=1;hachureGap=4;jiggle=2;curveFitting=1;fontFamily=Architects Daughter;fontSource=https%3A%2F%2Ffonts.googleapis.com%2Fcss%3Ffamily%3DArchitects%2BDaughter;" parent="1" vertex="1">
          <mxGeometry x="186.99" y="2971" width="303.05" height="35" as="geometry" />
        </mxCell>
        <mxCell id="AhlPXchiRFUv19-gY8pR-319" value="" style="verticalLabelPosition=bottom;shadow=0;dashed=0;align=center;html=1;verticalAlign=top;strokeWidth=1;shape=mxgraph.mockup.misc.shoppingCart;strokeColor=#999999;sketch=1;hachureGap=4;jiggle=2;curveFitting=1;fontFamily=Architects Daughter;fontSource=https%3A%2F%2Ffonts.googleapis.com%2Fcss%3Ffamily%3DArchitects%2BDaughter;" parent="1" vertex="1">
          <mxGeometry x="540.9799999999999" y="2961" width="50" height="50" as="geometry" />
        </mxCell>
        <mxCell id="AhlPXchiRFUv19-gY8pR-320" value="" style="outlineConnect=0;dashed=0;verticalLabelPosition=bottom;verticalAlign=top;align=center;html=1;shape=mxgraph.aws3.user;fillColor=#333333;gradientColor=none;sketch=1;hachureGap=4;jiggle=2;curveFitting=1;fontFamily=Architects Daughter;fontSource=https%3A%2F%2Ffonts.googleapis.com%2Fcss%3Ffamily%3DArchitects%2BDaughter;" parent="1" vertex="1">
          <mxGeometry x="628.5699999999999" y="2961" width="39.11" height="50" as="geometry" />
        </mxCell>
        <mxCell id="AhlPXchiRFUv19-gY8pR-321" value="1" style="ellipse;whiteSpace=wrap;html=1;aspect=fixed;strokeWidth=2;fontFamily=Tahoma;spacingBottom=4;spacingRight=2;strokeColor=#d3d3d3;sketch=1;hachureGap=4;jiggle=2;curveFitting=1;fontSource=https%3A%2F%2Ffonts.googleapis.com%2Fcss%3Ffamily%3DArchitects%2BDaughter;" parent="1" vertex="1">
          <mxGeometry x="531.56" y="3011" width="11.5" height="11.5" as="geometry" />
        </mxCell>
        <mxCell id="AhlPXchiRFUv19-gY8pR-322" value="" style="rounded=0;whiteSpace=wrap;html=1;sketch=1;hachureGap=4;jiggle=2;curveFitting=1;fontFamily=Architects Daughter;fontSource=https%3A%2F%2Ffonts.googleapis.com%2Fcss%3Ffamily%3DArchitects%2BDaughter;" parent="1" vertex="1">
          <mxGeometry x="10" y="3030" width="697.68" height="40" as="geometry" />
        </mxCell>
        <mxCell id="AhlPXchiRFUv19-gY8pR-323" value="Track Orders" style="rounded=0;whiteSpace=wrap;html=1;sketch=1;hachureGap=4;jiggle=2;curveFitting=1;fontFamily=Architects Daughter;fontSource=https%3A%2F%2Ffonts.googleapis.com%2Fcss%3Ffamily%3DArchitects%2BDaughter;fillColor=#B3B3B3;" parent="1" vertex="1">
          <mxGeometry x="57.55000000000002" y="3042.85" width="98.4" height="18.3" as="geometry" />
        </mxCell>
        <mxCell id="AhlPXchiRFUv19-gY8pR-324" value="Previous Orders" style="rounded=0;whiteSpace=wrap;html=1;sketch=1;hachureGap=4;jiggle=2;curveFitting=1;fontFamily=Architects Daughter;fontSource=https%3A%2F%2Ffonts.googleapis.com%2Fcss%3Ffamily%3DArchitects%2BDaughter;" parent="1" vertex="1">
          <mxGeometry x="315.82000000000005" y="3040.85" width="98.4" height="18.3" as="geometry" />
        </mxCell>
        <mxCell id="AhlPXchiRFUv19-gY8pR-325" value="Edit Profile" style="rounded=0;whiteSpace=wrap;html=1;sketch=1;hachureGap=4;jiggle=2;curveFitting=1;fontFamily=Architects Daughter;fontSource=https%3A%2F%2Ffonts.googleapis.com%2Fcss%3Ffamily%3DArchitects%2BDaughter;" parent="1" vertex="1">
          <mxGeometry x="565.54" y="3040.85" width="98.4" height="18.3" as="geometry" />
        </mxCell>
        <mxCell id="AhlPXchiRFUv19-gY8pR-352" value="" style="rounded=0;whiteSpace=wrap;html=1;sketch=1;hachureGap=4;jiggle=2;curveFitting=1;fontFamily=Architects Daughter;fontSource=https%3A%2F%2Ffonts.googleapis.com%2Fcss%3Ffamily%3DArchitects%2BDaughter;" parent="1" vertex="1">
          <mxGeometry x="18.26" y="3078" width="301.74" height="242" as="geometry" />
        </mxCell>
        <mxCell id="AhlPXchiRFUv19-gY8pR-353" value="&lt;span style=&quot;font-size: 18px;&quot;&gt;Order Number&lt;/span&gt;" style="text;html=1;align=center;verticalAlign=middle;whiteSpace=wrap;rounded=0;fontFamily=Architects Daughter;fontSource=https%3A%2F%2Ffonts.googleapis.com%2Fcss%3Ffamily%3DArchitects%2BDaughter;" parent="1" vertex="1">
          <mxGeometry x="49" y="3083" width="167.4" height="27" as="geometry" />
        </mxCell>
        <mxCell id="AhlPXchiRFUv19-gY8pR-354" value="" style="html=1;shadow=0;dashed=0;shape=mxgraph.bootstrap.radioButton2;labelPosition=right;verticalLabelPosition=middle;align=left;verticalAlign=middle;gradientColor=#DEDEDE;fillColor=#EDEDED;checked=0;spacing=5;checkedFill=#0085FC;checkedStroke=#ffffff;sketch=0;hachureGap=4;jiggle=2;curveFitting=1;fontFamily=Architects Daughter;fontSource=https%3A%2F%2Ffonts.googleapis.com%2Fcss%3Ffamily%3DArchitects%2BDaughter;" parent="1" vertex="1">
          <mxGeometry x="42" y="3118" width="27.89" height="30" as="geometry" />
        </mxCell>
        <mxCell id="AhlPXchiRFUv19-gY8pR-359" value="" style="html=1;shadow=0;dashed=0;shape=mxgraph.bootstrap.radioButton2;labelPosition=right;verticalLabelPosition=middle;align=left;verticalAlign=middle;gradientColor=#DEDEDE;fillColor=#EDEDED;checked=0;spacing=5;checkedFill=#0085FC;checkedStroke=#ffffff;sketch=0;hachureGap=4;jiggle=2;curveFitting=1;fontFamily=Architects Daughter;fontSource=https%3A%2F%2Ffonts.googleapis.com%2Fcss%3Ffamily%3DArchitects%2BDaughter;" parent="1" vertex="1">
          <mxGeometry x="42" y="3159" width="27.89" height="30" as="geometry" />
        </mxCell>
        <mxCell id="AhlPXchiRFUv19-gY8pR-360" value="" style="html=1;shadow=0;dashed=0;shape=mxgraph.bootstrap.radioButton2;labelPosition=right;verticalLabelPosition=middle;align=left;verticalAlign=middle;gradientColor=#DEDEDE;fillColor=#EDEDED;checked=0;spacing=5;checkedFill=#0085FC;checkedStroke=#ffffff;sketch=0;hachureGap=4;jiggle=2;curveFitting=1;fontFamily=Architects Daughter;fontSource=https%3A%2F%2Ffonts.googleapis.com%2Fcss%3Ffamily%3DArchitects%2BDaughter;" parent="1" vertex="1">
          <mxGeometry x="42" y="3199" width="27.89" height="30" as="geometry" />
        </mxCell>
        <mxCell id="AhlPXchiRFUv19-gY8pR-361" value="" style="html=1;shadow=0;dashed=0;shape=mxgraph.bootstrap.radioButton2;labelPosition=right;verticalLabelPosition=middle;align=left;verticalAlign=middle;gradientColor=#DEDEDE;fillColor=#EDEDED;checked=0;spacing=5;checkedFill=#0085FC;checkedStroke=#ffffff;sketch=0;hachureGap=4;jiggle=2;curveFitting=1;fontFamily=Architects Daughter;fontSource=https%3A%2F%2Ffonts.googleapis.com%2Fcss%3Ffamily%3DArchitects%2BDaughter;" parent="1" vertex="1">
          <mxGeometry x="42" y="3240" width="27.89" height="30" as="geometry" />
        </mxCell>
        <mxCell id="AhlPXchiRFUv19-gY8pR-362" value="" style="html=1;shadow=0;dashed=0;shape=mxgraph.bootstrap.radioButton2;labelPosition=right;verticalLabelPosition=middle;align=left;verticalAlign=middle;gradientColor=#DEDEDE;fillColor=#EDEDED;checked=0;spacing=5;checkedFill=#0085FC;checkedStroke=#ffffff;sketch=0;hachureGap=4;jiggle=2;curveFitting=1;fontFamily=Architects Daughter;fontSource=https%3A%2F%2Ffonts.googleapis.com%2Fcss%3Ffamily%3DArchitects%2BDaughter;" parent="1" vertex="1">
          <mxGeometry x="42" y="3280" width="27.89" height="30" as="geometry" />
        </mxCell>
        <mxCell id="AhlPXchiRFUv19-gY8pR-364" value="&lt;font style=&quot;font-size: 15px;&quot;&gt;Order Placed&lt;/font&gt;" style="text;html=1;align=center;verticalAlign=middle;whiteSpace=wrap;rounded=0;fontFamily=Architects Daughter;fontSource=https%3A%2F%2Ffonts.googleapis.com%2Fcss%3Ffamily%3DArchitects%2BDaughter;" parent="1" vertex="1">
          <mxGeometry x="87.9" y="3118" width="113.1" height="30" as="geometry" />
        </mxCell>
        <mxCell id="AhlPXchiRFUv19-gY8pR-365" value="&lt;font style=&quot;font-size: 15px;&quot;&gt;Order Accepted&lt;/font&gt;" style="text;html=1;align=center;verticalAlign=middle;whiteSpace=wrap;rounded=0;fontFamily=Architects Daughter;fontSource=https%3A%2F%2Ffonts.googleapis.com%2Fcss%3Ffamily%3DArchitects%2BDaughter;" parent="1" vertex="1">
          <mxGeometry x="93.31" y="3161" width="122.1" height="30" as="geometry" />
        </mxCell>
        <mxCell id="AhlPXchiRFUv19-gY8pR-366" value="&lt;font style=&quot;font-size: 15px;&quot;&gt;Order In Process&lt;/font&gt;" style="text;html=1;align=center;verticalAlign=middle;whiteSpace=wrap;rounded=0;fontFamily=Architects Daughter;fontSource=https%3A%2F%2Ffonts.googleapis.com%2Fcss%3Ffamily%3DArchitects%2BDaughter;" parent="1" vertex="1">
          <mxGeometry x="93.31" y="3201" width="126.69" height="30" as="geometry" />
        </mxCell>
        <mxCell id="AhlPXchiRFUv19-gY8pR-367" value="&lt;span style=&quot;font-size: 15px;&quot;&gt;Order Completed&lt;/span&gt;" style="text;html=1;align=center;verticalAlign=middle;whiteSpace=wrap;rounded=0;fontFamily=Architects Daughter;fontSource=https%3A%2F%2Ffonts.googleapis.com%2Fcss%3Ffamily%3DArchitects%2BDaughter;" parent="1" vertex="1">
          <mxGeometry x="93.31" y="3240" width="122.1" height="30" as="geometry" />
        </mxCell>
        <mxCell id="AhlPXchiRFUv19-gY8pR-368" value="&lt;span style=&quot;font-size: 15px;&quot;&gt;Collected&lt;/span&gt;" style="text;html=1;align=center;verticalAlign=middle;whiteSpace=wrap;rounded=0;fontFamily=Architects Daughter;fontSource=https%3A%2F%2Ffonts.googleapis.com%2Fcss%3Ffamily%3DArchitects%2BDaughter;" parent="1" vertex="1">
          <mxGeometry x="99.72999999999999" y="3280" width="76.4" height="30" as="geometry" />
        </mxCell>
        <mxCell id="AhlPXchiRFUv19-gY8pR-395" value="&lt;font style=&quot;font-size: 12px;&quot;&gt;Cancel&lt;/font&gt;" style="rounded=1;html=1;shadow=0;dashed=0;whiteSpace=wrap;fontSize=10;fillColor=#E6E6E6;align=center;strokeColor=#E6E6E6;fontColor=#333333;sketch=1;hachureGap=4;jiggle=2;curveFitting=1;fontFamily=Architects Daughter;fontSource=https%3A%2F%2Ffonts.googleapis.com%2Fcss%3Ffamily%3DArchitects%2BDaughter;" parent="1" vertex="1">
          <mxGeometry x="205.45000000000002" y="3290.81" width="105.5" height="16.88" as="geometry" />
        </mxCell>
        <mxCell id="AhlPXchiRFUv19-gY8pR-396" value="" style="rounded=0;whiteSpace=wrap;html=1;sketch=1;hachureGap=4;jiggle=2;curveFitting=1;fontFamily=Architects Daughter;fontSource=https%3A%2F%2Ffonts.googleapis.com%2Fcss%3Ffamily%3DArchitects%2BDaughter;" parent="1" vertex="1">
          <mxGeometry x="367.52" y="3076" width="301.74" height="242" as="geometry" />
        </mxCell>
        <mxCell id="AhlPXchiRFUv19-gY8pR-397" value="&lt;span style=&quot;font-size: 18px;&quot;&gt;Order Number&lt;/span&gt;" style="text;html=1;align=center;verticalAlign=middle;whiteSpace=wrap;rounded=0;fontFamily=Architects Daughter;fontSource=https%3A%2F%2Ffonts.googleapis.com%2Fcss%3Ffamily%3DArchitects%2BDaughter;" parent="1" vertex="1">
          <mxGeometry x="398.26" y="3081" width="167.4" height="27" as="geometry" />
        </mxCell>
        <mxCell id="AhlPXchiRFUv19-gY8pR-398" value="" style="html=1;shadow=0;dashed=0;shape=mxgraph.bootstrap.radioButton2;labelPosition=right;verticalLabelPosition=middle;align=left;verticalAlign=middle;gradientColor=#DEDEDE;fillColor=#EDEDED;checked=0;spacing=5;checkedFill=#0085FC;checkedStroke=#ffffff;sketch=0;hachureGap=4;jiggle=2;curveFitting=1;fontFamily=Architects Daughter;fontSource=https%3A%2F%2Ffonts.googleapis.com%2Fcss%3Ffamily%3DArchitects%2BDaughter;" parent="1" vertex="1">
          <mxGeometry x="391.26" y="3116" width="27.89" height="30" as="geometry" />
        </mxCell>
        <mxCell id="AhlPXchiRFUv19-gY8pR-399" value="" style="html=1;shadow=0;dashed=0;shape=mxgraph.bootstrap.radioButton2;labelPosition=right;verticalLabelPosition=middle;align=left;verticalAlign=middle;gradientColor=#DEDEDE;fillColor=#EDEDED;checked=0;spacing=5;checkedFill=#0085FC;checkedStroke=#ffffff;sketch=0;hachureGap=4;jiggle=2;curveFitting=1;fontFamily=Architects Daughter;fontSource=https%3A%2F%2Ffonts.googleapis.com%2Fcss%3Ffamily%3DArchitects%2BDaughter;" parent="1" vertex="1">
          <mxGeometry x="391.26" y="3157" width="27.89" height="30" as="geometry" />
        </mxCell>
        <mxCell id="AhlPXchiRFUv19-gY8pR-400" value="" style="html=1;shadow=0;dashed=0;shape=mxgraph.bootstrap.radioButton2;labelPosition=right;verticalLabelPosition=middle;align=left;verticalAlign=middle;gradientColor=#DEDEDE;fillColor=#EDEDED;checked=0;spacing=5;checkedFill=#0085FC;checkedStroke=#ffffff;sketch=0;hachureGap=4;jiggle=2;curveFitting=1;fontFamily=Architects Daughter;fontSource=https%3A%2F%2Ffonts.googleapis.com%2Fcss%3Ffamily%3DArchitects%2BDaughter;" parent="1" vertex="1">
          <mxGeometry x="391.26" y="3197" width="27.89" height="30" as="geometry" />
        </mxCell>
        <mxCell id="AhlPXchiRFUv19-gY8pR-401" value="" style="html=1;shadow=0;dashed=0;shape=mxgraph.bootstrap.radioButton2;labelPosition=right;verticalLabelPosition=middle;align=left;verticalAlign=middle;gradientColor=#DEDEDE;fillColor=#EDEDED;checked=0;spacing=5;checkedFill=#0085FC;checkedStroke=#ffffff;sketch=0;hachureGap=4;jiggle=2;curveFitting=1;fontFamily=Architects Daughter;fontSource=https%3A%2F%2Ffonts.googleapis.com%2Fcss%3Ffamily%3DArchitects%2BDaughter;" parent="1" vertex="1">
          <mxGeometry x="391.26" y="3238" width="27.89" height="30" as="geometry" />
        </mxCell>
        <mxCell id="AhlPXchiRFUv19-gY8pR-402" value="" style="html=1;shadow=0;dashed=0;shape=mxgraph.bootstrap.radioButton2;labelPosition=right;verticalLabelPosition=middle;align=left;verticalAlign=middle;gradientColor=#DEDEDE;fillColor=#EDEDED;checked=0;spacing=5;checkedFill=#0085FC;checkedStroke=#ffffff;sketch=0;hachureGap=4;jiggle=2;curveFitting=1;fontFamily=Architects Daughter;fontSource=https%3A%2F%2Ffonts.googleapis.com%2Fcss%3Ffamily%3DArchitects%2BDaughter;" parent="1" vertex="1">
          <mxGeometry x="391.26" y="3278" width="27.89" height="30" as="geometry" />
        </mxCell>
        <mxCell id="AhlPXchiRFUv19-gY8pR-403" value="&lt;font style=&quot;font-size: 15px;&quot;&gt;Order Placed&lt;/font&gt;" style="text;html=1;align=center;verticalAlign=middle;whiteSpace=wrap;rounded=0;fontFamily=Architects Daughter;fontSource=https%3A%2F%2Ffonts.googleapis.com%2Fcss%3Ffamily%3DArchitects%2BDaughter;" parent="1" vertex="1">
          <mxGeometry x="437.15999999999997" y="3116" width="113.1" height="30" as="geometry" />
        </mxCell>
        <mxCell id="AhlPXchiRFUv19-gY8pR-404" value="&lt;font style=&quot;font-size: 15px;&quot;&gt;Order Accepted&lt;/font&gt;" style="text;html=1;align=center;verticalAlign=middle;whiteSpace=wrap;rounded=0;fontFamily=Architects Daughter;fontSource=https%3A%2F%2Ffonts.googleapis.com%2Fcss%3Ffamily%3DArchitects%2BDaughter;" parent="1" vertex="1">
          <mxGeometry x="442.57" y="3159" width="122.1" height="30" as="geometry" />
        </mxCell>
        <mxCell id="AhlPXchiRFUv19-gY8pR-405" value="&lt;font style=&quot;font-size: 15px;&quot;&gt;Order In Process&lt;/font&gt;" style="text;html=1;align=center;verticalAlign=middle;whiteSpace=wrap;rounded=0;fontFamily=Architects Daughter;fontSource=https%3A%2F%2Ffonts.googleapis.com%2Fcss%3Ffamily%3DArchitects%2BDaughter;" parent="1" vertex="1">
          <mxGeometry x="442.57" y="3199" width="126.69" height="30" as="geometry" />
        </mxCell>
        <mxCell id="AhlPXchiRFUv19-gY8pR-406" value="&lt;span style=&quot;font-size: 15px;&quot;&gt;Order Completed&lt;/span&gt;" style="text;html=1;align=center;verticalAlign=middle;whiteSpace=wrap;rounded=0;fontFamily=Architects Daughter;fontSource=https%3A%2F%2Ffonts.googleapis.com%2Fcss%3Ffamily%3DArchitects%2BDaughter;" parent="1" vertex="1">
          <mxGeometry x="442.57" y="3238" width="122.1" height="30" as="geometry" />
        </mxCell>
        <mxCell id="AhlPXchiRFUv19-gY8pR-407" value="&lt;span style=&quot;font-size: 15px;&quot;&gt;Collected&lt;/span&gt;" style="text;html=1;align=center;verticalAlign=middle;whiteSpace=wrap;rounded=0;fontFamily=Architects Daughter;fontSource=https%3A%2F%2Ffonts.googleapis.com%2Fcss%3Ffamily%3DArchitects%2BDaughter;" parent="1" vertex="1">
          <mxGeometry x="448.99" y="3278" width="76.4" height="30" as="geometry" />
        </mxCell>
        <mxCell id="AhlPXchiRFUv19-gY8pR-408" value="&lt;font style=&quot;font-size: 12px;&quot;&gt;Cancel&lt;/font&gt;" style="rounded=1;html=1;shadow=0;dashed=0;whiteSpace=wrap;fontSize=10;fillColor=#E6E6E6;align=center;strokeColor=#E6E6E6;fontColor=#333333;sketch=1;hachureGap=4;jiggle=2;curveFitting=1;fontFamily=Architects Daughter;fontSource=https%3A%2F%2Ffonts.googleapis.com%2Fcss%3Ffamily%3DArchitects%2BDaughter;" parent="1" vertex="1">
          <mxGeometry x="554.71" y="3288.81" width="105.5" height="16.88" as="geometry" />
        </mxCell>
        <mxCell id="AhlPXchiRFUv19-gY8pR-409" value="&lt;span style=&quot;font-size: 24px;&quot;&gt;User Profile Page/Previous Orders&lt;/span&gt;" style="text;html=1;align=center;verticalAlign=middle;whiteSpace=wrap;rounded=0;" parent="1" vertex="1">
          <mxGeometry x="9.38" y="3381" width="390.62" height="30" as="geometry" />
        </mxCell>
        <mxCell id="AhlPXchiRFUv19-gY8pR-410" value="" style="rounded=0;whiteSpace=wrap;html=1;sketch=1;hachureGap=4;jiggle=2;curveFitting=1;fontFamily=Architects Daughter;fontSource=https%3A%2F%2Ffonts.googleapis.com%2Fcss%3Ffamily%3DArchitects%2BDaughter;" parent="1" vertex="1">
          <mxGeometry x="8.85" y="3420" width="699.98" height="390" as="geometry" />
        </mxCell>
        <mxCell id="AhlPXchiRFUv19-gY8pR-411" value="" style="rounded=0;whiteSpace=wrap;html=1;sketch=1;hachureGap=4;jiggle=2;curveFitting=1;fontFamily=Architects Daughter;fontSource=https%3A%2F%2Ffonts.googleapis.com%2Fcss%3Ffamily%3DArchitects%2BDaughter;" parent="1" vertex="1">
          <mxGeometry x="9.85" y="3425" width="697.68" height="90" as="geometry" />
        </mxCell>
        <mxCell id="AhlPXchiRFUv19-gY8pR-412" value="Image of&amp;nbsp; a Pizza Logo" style="ellipse;whiteSpace=wrap;html=1;aspect=fixed;sketch=1;hachureGap=4;jiggle=2;curveFitting=1;fontFamily=Architects Daughter;fontSource=https%3A%2F%2Ffonts.googleapis.com%2Fcss%3Ffamily%3DArchitects%2BDaughter;" parent="1" vertex="1">
          <mxGeometry x="32.34" y="3436.75" width="68.5" height="68.5" as="geometry" />
        </mxCell>
        <mxCell id="AhlPXchiRFUv19-gY8pR-413" value="Search" style="strokeWidth=1;shadow=0;dashed=0;align=center;html=1;shape=mxgraph.mockup.forms.searchBox;strokeColor=#999999;mainText=;strokeColor2=#008cff;fontColor=#666666;fontSize=17;align=left;spacingLeft=3;whiteSpace=wrap;sketch=1;hachureGap=4;jiggle=2;curveFitting=1;fontFamily=Architects Daughter;fontSource=https%3A%2F%2Ffonts.googleapis.com%2Fcss%3Ffamily%3DArchitects%2BDaughter;" parent="1" vertex="1">
          <mxGeometry x="186.84" y="3456" width="303.05" height="35" as="geometry" />
        </mxCell>
        <mxCell id="AhlPXchiRFUv19-gY8pR-414" value="" style="verticalLabelPosition=bottom;shadow=0;dashed=0;align=center;html=1;verticalAlign=top;strokeWidth=1;shape=mxgraph.mockup.misc.shoppingCart;strokeColor=#999999;sketch=1;hachureGap=4;jiggle=2;curveFitting=1;fontFamily=Architects Daughter;fontSource=https%3A%2F%2Ffonts.googleapis.com%2Fcss%3Ffamily%3DArchitects%2BDaughter;" parent="1" vertex="1">
          <mxGeometry x="540.8299999999999" y="3446" width="50" height="50" as="geometry" />
        </mxCell>
        <mxCell id="AhlPXchiRFUv19-gY8pR-415" value="" style="outlineConnect=0;dashed=0;verticalLabelPosition=bottom;verticalAlign=top;align=center;html=1;shape=mxgraph.aws3.user;fillColor=#333333;gradientColor=none;sketch=1;hachureGap=4;jiggle=2;curveFitting=1;fontFamily=Architects Daughter;fontSource=https%3A%2F%2Ffonts.googleapis.com%2Fcss%3Ffamily%3DArchitects%2BDaughter;" parent="1" vertex="1">
          <mxGeometry x="628.42" y="3446" width="39.11" height="50" as="geometry" />
        </mxCell>
        <mxCell id="AhlPXchiRFUv19-gY8pR-416" value="1" style="ellipse;whiteSpace=wrap;html=1;aspect=fixed;strokeWidth=2;fontFamily=Tahoma;spacingBottom=4;spacingRight=2;strokeColor=#d3d3d3;sketch=1;hachureGap=4;jiggle=2;curveFitting=1;fontSource=https%3A%2F%2Ffonts.googleapis.com%2Fcss%3Ffamily%3DArchitects%2BDaughter;" parent="1" vertex="1">
          <mxGeometry x="531.41" y="3496" width="11.5" height="11.5" as="geometry" />
        </mxCell>
        <mxCell id="AhlPXchiRFUv19-gY8pR-417" value="" style="rounded=0;whiteSpace=wrap;html=1;sketch=1;hachureGap=4;jiggle=2;curveFitting=1;fontFamily=Architects Daughter;fontSource=https%3A%2F%2Ffonts.googleapis.com%2Fcss%3Ffamily%3DArchitects%2BDaughter;" parent="1" vertex="1">
          <mxGeometry x="9.85" y="3515" width="697.68" height="40" as="geometry" />
        </mxCell>
        <mxCell id="AhlPXchiRFUv19-gY8pR-418" value="Track Orders" style="rounded=0;whiteSpace=wrap;html=1;sketch=1;hachureGap=4;jiggle=2;curveFitting=1;fontFamily=Architects Daughter;fontSource=https%3A%2F%2Ffonts.googleapis.com%2Fcss%3Ffamily%3DArchitects%2BDaughter;fillColor=none;" parent="1" vertex="1">
          <mxGeometry x="57.40000000000001" y="3527.85" width="98.4" height="18.3" as="geometry" />
        </mxCell>
        <mxCell id="AhlPXchiRFUv19-gY8pR-419" value="Previous Orders" style="rounded=0;whiteSpace=wrap;html=1;sketch=1;hachureGap=4;jiggle=2;curveFitting=1;fontFamily=Architects Daughter;fontSource=https%3A%2F%2Ffonts.googleapis.com%2Fcss%3Ffamily%3DArchitects%2BDaughter;fillColor=#B3B3B3;" parent="1" vertex="1">
          <mxGeometry x="315.6700000000001" y="3525.85" width="98.4" height="18.3" as="geometry" />
        </mxCell>
        <mxCell id="AhlPXchiRFUv19-gY8pR-420" value="Edit Profile" style="rounded=0;whiteSpace=wrap;html=1;sketch=1;hachureGap=4;jiggle=2;curveFitting=1;fontFamily=Architects Daughter;fontSource=https%3A%2F%2Ffonts.googleapis.com%2Fcss%3Ffamily%3DArchitects%2BDaughter;" parent="1" vertex="1">
          <mxGeometry x="565.39" y="3525.85" width="98.4" height="18.3" as="geometry" />
        </mxCell>
        <mxCell id="AhlPXchiRFUv19-gY8pR-451" value="" style="rounded=0;whiteSpace=wrap;html=1;sketch=1;hachureGap=4;jiggle=2;curveFitting=1;fontFamily=Architects Daughter;fontSource=https%3A%2F%2Ffonts.googleapis.com%2Fcss%3Ffamily%3DArchitects%2BDaughter;" parent="1" vertex="1">
          <mxGeometry x="36.660000000000004" y="3590" width="282.98" height="89" as="geometry" />
        </mxCell>
        <mxCell id="AhlPXchiRFUv19-gY8pR-453" value="&lt;font style=&quot;font-size: 18px;&quot;&gt;Order Number&lt;/font&gt;" style="text;html=1;align=center;verticalAlign=middle;whiteSpace=wrap;rounded=0;fontFamily=Architects Daughter;fontSource=https%3A%2F%2Ffonts.googleapis.com%2Fcss%3Ffamily%3DArchitects%2BDaughter;" parent="1" vertex="1">
          <mxGeometry x="39.47" y="3593" width="144.46" height="30" as="geometry" />
        </mxCell>
        <mxCell id="AhlPXchiRFUv19-gY8pR-454" value="Date and Time" style="text;html=1;align=center;verticalAlign=middle;whiteSpace=wrap;rounded=0;fontFamily=Architects Daughter;fontSource=https%3A%2F%2Ffonts.googleapis.com%2Fcss%3Ffamily%3DArchitects%2BDaughter;" parent="1" vertex="1">
          <mxGeometry x="49.11" y="3620" width="86.96" height="30" as="geometry" />
        </mxCell>
        <mxCell id="AhlPXchiRFUv19-gY8pR-455" value="Total Price" style="text;html=1;align=center;verticalAlign=middle;whiteSpace=wrap;rounded=0;fontFamily=Architects Daughter;fontSource=https%3A%2F%2Ffonts.googleapis.com%2Fcss%3Ffamily%3DArchitects%2BDaughter;" parent="1" vertex="1">
          <mxGeometry x="231.2" y="3646" width="78.83" height="30" as="geometry" />
        </mxCell>
        <mxCell id="AhlPXchiRFUv19-gY8pR-462" value="" style="rounded=0;whiteSpace=wrap;html=1;sketch=1;hachureGap=4;jiggle=2;curveFitting=1;fontFamily=Architects Daughter;fontSource=https%3A%2F%2Ffonts.googleapis.com%2Fcss%3Ffamily%3DArchitects%2BDaughter;" parent="1" vertex="1">
          <mxGeometry x="395.52000000000004" y="3593" width="282.98" height="89" as="geometry" />
        </mxCell>
        <mxCell id="AhlPXchiRFUv19-gY8pR-463" value="&lt;font style=&quot;font-size: 18px;&quot;&gt;Order Number&lt;/font&gt;" style="text;html=1;align=center;verticalAlign=middle;whiteSpace=wrap;rounded=0;fontFamily=Architects Daughter;fontSource=https%3A%2F%2Ffonts.googleapis.com%2Fcss%3Ffamily%3DArchitects%2BDaughter;" parent="1" vertex="1">
          <mxGeometry x="398.33000000000004" y="3596" width="144.46" height="30" as="geometry" />
        </mxCell>
        <mxCell id="AhlPXchiRFUv19-gY8pR-464" value="Date and Time" style="text;html=1;align=center;verticalAlign=middle;whiteSpace=wrap;rounded=0;fontFamily=Architects Daughter;fontSource=https%3A%2F%2Ffonts.googleapis.com%2Fcss%3Ffamily%3DArchitects%2BDaughter;" parent="1" vertex="1">
          <mxGeometry x="407.97" y="3623" width="86.96" height="30" as="geometry" />
        </mxCell>
        <mxCell id="AhlPXchiRFUv19-gY8pR-465" value="Total Price" style="text;html=1;align=center;verticalAlign=middle;whiteSpace=wrap;rounded=0;fontFamily=Architects Daughter;fontSource=https%3A%2F%2Ffonts.googleapis.com%2Fcss%3Ffamily%3DArchitects%2BDaughter;" parent="1" vertex="1">
          <mxGeometry x="590.06" y="3649" width="78.83" height="30" as="geometry" />
        </mxCell>
        <mxCell id="AhlPXchiRFUv19-gY8pR-466" value="" style="rounded=0;whiteSpace=wrap;html=1;sketch=1;hachureGap=4;jiggle=2;curveFitting=1;fontFamily=Architects Daughter;fontSource=https%3A%2F%2Ffonts.googleapis.com%2Fcss%3Ffamily%3DArchitects%2BDaughter;" parent="1" vertex="1">
          <mxGeometry x="38.63" y="3705" width="282.98" height="89" as="geometry" />
        </mxCell>
        <mxCell id="AhlPXchiRFUv19-gY8pR-467" value="&lt;font style=&quot;font-size: 18px;&quot;&gt;Order Number&lt;/font&gt;" style="text;html=1;align=center;verticalAlign=middle;whiteSpace=wrap;rounded=0;fontFamily=Architects Daughter;fontSource=https%3A%2F%2Ffonts.googleapis.com%2Fcss%3Ffamily%3DArchitects%2BDaughter;" parent="1" vertex="1">
          <mxGeometry x="41.44" y="3708" width="144.46" height="30" as="geometry" />
        </mxCell>
        <mxCell id="AhlPXchiRFUv19-gY8pR-468" value="Date and Time" style="text;html=1;align=center;verticalAlign=middle;whiteSpace=wrap;rounded=0;fontFamily=Architects Daughter;fontSource=https%3A%2F%2Ffonts.googleapis.com%2Fcss%3Ffamily%3DArchitects%2BDaughter;" parent="1" vertex="1">
          <mxGeometry x="51.08" y="3735" width="86.96" height="30" as="geometry" />
        </mxCell>
        <mxCell id="AhlPXchiRFUv19-gY8pR-469" value="Total Price" style="text;html=1;align=center;verticalAlign=middle;whiteSpace=wrap;rounded=0;fontFamily=Architects Daughter;fontSource=https%3A%2F%2Ffonts.googleapis.com%2Fcss%3Ffamily%3DArchitects%2BDaughter;" parent="1" vertex="1">
          <mxGeometry x="233.17" y="3761" width="78.83" height="30" as="geometry" />
        </mxCell>
        <mxCell id="AhlPXchiRFUv19-gY8pR-470" value="" style="rounded=0;whiteSpace=wrap;html=1;sketch=1;hachureGap=4;jiggle=2;curveFitting=1;fontFamily=Architects Daughter;fontSource=https%3A%2F%2Ffonts.googleapis.com%2Fcss%3Ffamily%3DArchitects%2BDaughter;" parent="1" vertex="1">
          <mxGeometry x="395.52" y="3708" width="282.98" height="89" as="geometry" />
        </mxCell>
        <mxCell id="AhlPXchiRFUv19-gY8pR-471" value="&lt;font style=&quot;font-size: 18px;&quot;&gt;Order Number&lt;/font&gt;" style="text;html=1;align=center;verticalAlign=middle;whiteSpace=wrap;rounded=0;fontFamily=Architects Daughter;fontSource=https%3A%2F%2Ffonts.googleapis.com%2Fcss%3Ffamily%3DArchitects%2BDaughter;" parent="1" vertex="1">
          <mxGeometry x="398.33000000000004" y="3711" width="144.46" height="30" as="geometry" />
        </mxCell>
        <mxCell id="AhlPXchiRFUv19-gY8pR-472" value="Date and Time" style="text;html=1;align=center;verticalAlign=middle;whiteSpace=wrap;rounded=0;fontFamily=Architects Daughter;fontSource=https%3A%2F%2Ffonts.googleapis.com%2Fcss%3Ffamily%3DArchitects%2BDaughter;" parent="1" vertex="1">
          <mxGeometry x="407.97" y="3738" width="86.96" height="30" as="geometry" />
        </mxCell>
        <mxCell id="AhlPXchiRFUv19-gY8pR-473" value="Total Price" style="text;html=1;align=center;verticalAlign=middle;whiteSpace=wrap;rounded=0;fontFamily=Architects Daughter;fontSource=https%3A%2F%2Ffonts.googleapis.com%2Fcss%3Ffamily%3DArchitects%2BDaughter;" parent="1" vertex="1">
          <mxGeometry x="590.06" y="3764" width="78.83" height="30" as="geometry" />
        </mxCell>
        <mxCell id="AhlPXchiRFUv19-gY8pR-474" value="&lt;span style=&quot;font-size: 24px;&quot;&gt;User Profile Page/Edit Profile&lt;/span&gt;" style="text;html=1;align=center;verticalAlign=middle;whiteSpace=wrap;rounded=0;" parent="1" vertex="1">
          <mxGeometry x="12.030000000000003" y="3855.25" width="390.62" height="30" as="geometry" />
        </mxCell>
        <mxCell id="AhlPXchiRFUv19-gY8pR-475" value="" style="rounded=0;whiteSpace=wrap;html=1;sketch=1;hachureGap=4;jiggle=2;curveFitting=1;fontFamily=Architects Daughter;fontSource=https%3A%2F%2Ffonts.googleapis.com%2Fcss%3Ffamily%3DArchitects%2BDaughter;" parent="1" vertex="1">
          <mxGeometry x="15.500000000000002" y="3888.25" width="699.98" height="390" as="geometry" />
        </mxCell>
        <mxCell id="AhlPXchiRFUv19-gY8pR-476" value="" style="rounded=0;whiteSpace=wrap;html=1;sketch=1;hachureGap=4;jiggle=2;curveFitting=1;fontFamily=Architects Daughter;fontSource=https%3A%2F%2Ffonts.googleapis.com%2Fcss%3Ffamily%3DArchitects%2BDaughter;" parent="1" vertex="1">
          <mxGeometry x="17.5" y="3890.25" width="697.68" height="90" as="geometry" />
        </mxCell>
        <mxCell id="AhlPXchiRFUv19-gY8pR-477" value="Image of&amp;nbsp; a Pizza Logo" style="ellipse;whiteSpace=wrap;html=1;aspect=fixed;sketch=1;hachureGap=4;jiggle=2;curveFitting=1;fontFamily=Architects Daughter;fontSource=https%3A%2F%2Ffonts.googleapis.com%2Fcss%3Ffamily%3DArchitects%2BDaughter;" parent="1" vertex="1">
          <mxGeometry x="39.99" y="3902" width="68.5" height="68.5" as="geometry" />
        </mxCell>
        <mxCell id="AhlPXchiRFUv19-gY8pR-478" value="Search" style="strokeWidth=1;shadow=0;dashed=0;align=center;html=1;shape=mxgraph.mockup.forms.searchBox;strokeColor=#999999;mainText=;strokeColor2=#008cff;fontColor=#666666;fontSize=17;align=left;spacingLeft=3;whiteSpace=wrap;sketch=1;hachureGap=4;jiggle=2;curveFitting=1;fontFamily=Architects Daughter;fontSource=https%3A%2F%2Ffonts.googleapis.com%2Fcss%3Ffamily%3DArchitects%2BDaughter;" parent="1" vertex="1">
          <mxGeometry x="194.49" y="3921.25" width="303.05" height="35" as="geometry" />
        </mxCell>
        <mxCell id="AhlPXchiRFUv19-gY8pR-479" value="" style="verticalLabelPosition=bottom;shadow=0;dashed=0;align=center;html=1;verticalAlign=top;strokeWidth=1;shape=mxgraph.mockup.misc.shoppingCart;strokeColor=#999999;sketch=1;hachureGap=4;jiggle=2;curveFitting=1;fontFamily=Architects Daughter;fontSource=https%3A%2F%2Ffonts.googleapis.com%2Fcss%3Ffamily%3DArchitects%2BDaughter;" parent="1" vertex="1">
          <mxGeometry x="548.4799999999999" y="3911.25" width="50" height="50" as="geometry" />
        </mxCell>
        <mxCell id="AhlPXchiRFUv19-gY8pR-480" value="" style="outlineConnect=0;dashed=0;verticalLabelPosition=bottom;verticalAlign=top;align=center;html=1;shape=mxgraph.aws3.user;fillColor=#333333;gradientColor=none;sketch=1;hachureGap=4;jiggle=2;curveFitting=1;fontFamily=Architects Daughter;fontSource=https%3A%2F%2Ffonts.googleapis.com%2Fcss%3Ffamily%3DArchitects%2BDaughter;" parent="1" vertex="1">
          <mxGeometry x="636.0699999999999" y="3911.25" width="39.11" height="50" as="geometry" />
        </mxCell>
        <mxCell id="AhlPXchiRFUv19-gY8pR-481" value="1" style="ellipse;whiteSpace=wrap;html=1;aspect=fixed;strokeWidth=2;fontFamily=Tahoma;spacingBottom=4;spacingRight=2;strokeColor=#d3d3d3;sketch=1;hachureGap=4;jiggle=2;curveFitting=1;fontSource=https%3A%2F%2Ffonts.googleapis.com%2Fcss%3Ffamily%3DArchitects%2BDaughter;" parent="1" vertex="1">
          <mxGeometry x="539.06" y="3961.25" width="11.5" height="11.5" as="geometry" />
        </mxCell>
        <mxCell id="AhlPXchiRFUv19-gY8pR-482" value="" style="rounded=0;whiteSpace=wrap;html=1;sketch=1;hachureGap=4;jiggle=2;curveFitting=1;fontFamily=Architects Daughter;fontSource=https%3A%2F%2Ffonts.googleapis.com%2Fcss%3Ffamily%3DArchitects%2BDaughter;" parent="1" vertex="1">
          <mxGeometry x="17.5" y="3980.25" width="697.68" height="40" as="geometry" />
        </mxCell>
        <mxCell id="AhlPXchiRFUv19-gY8pR-483" value="Track Orders" style="rounded=0;whiteSpace=wrap;html=1;sketch=1;hachureGap=4;jiggle=2;curveFitting=1;fontFamily=Architects Daughter;fontSource=https%3A%2F%2Ffonts.googleapis.com%2Fcss%3Ffamily%3DArchitects%2BDaughter;fillColor=none;" parent="1" vertex="1">
          <mxGeometry x="65.05000000000001" y="3993.1" width="98.4" height="18.3" as="geometry" />
        </mxCell>
        <mxCell id="AhlPXchiRFUv19-gY8pR-484" value="Previous Orders" style="rounded=0;whiteSpace=wrap;html=1;sketch=1;hachureGap=4;jiggle=2;curveFitting=1;fontFamily=Architects Daughter;fontSource=https%3A%2F%2Ffonts.googleapis.com%2Fcss%3Ffamily%3DArchitects%2BDaughter;" parent="1" vertex="1">
          <mxGeometry x="323.32000000000005" y="3991.1" width="98.4" height="18.3" as="geometry" />
        </mxCell>
        <mxCell id="AhlPXchiRFUv19-gY8pR-485" value="Edit Profile" style="rounded=0;whiteSpace=wrap;html=1;sketch=1;hachureGap=4;jiggle=2;curveFitting=1;fontFamily=Architects Daughter;fontSource=https%3A%2F%2Ffonts.googleapis.com%2Fcss%3Ffamily%3DArchitects%2BDaughter;fillColor=#B3B3B3;" parent="1" vertex="1">
          <mxGeometry x="573.04" y="3991.1" width="98.4" height="18.3" as="geometry" />
        </mxCell>
        <mxCell id="AhlPXchiRFUv19-gY8pR-502" value="" style="rounded=0;whiteSpace=wrap;html=1;sketch=1;hachureGap=4;jiggle=2;curveFitting=1;fontFamily=Architects Daughter;fontSource=https%3A%2F%2Ffonts.googleapis.com%2Fcss%3Ffamily%3DArchitects%2BDaughter;" parent="1" vertex="1">
          <mxGeometry x="109.44" y="4030" width="534.94" height="240" as="geometry" />
        </mxCell>
        <mxCell id="AhlPXchiRFUv19-gY8pR-503" value="&lt;span style=&quot;font-size: 17px;&quot;&gt;Profile:&lt;/span&gt;" style="text;html=1;align=center;verticalAlign=middle;whiteSpace=wrap;rounded=0;fontFamily=Architects Daughter;fontSource=https%3A%2F%2Ffonts.googleapis.com%2Fcss%3Ffamily%3DArchitects%2BDaughter;" parent="1" vertex="1">
          <mxGeometry x="283" y="4034.25" width="180" height="16.75" as="geometry" />
        </mxCell>
        <mxCell id="AhlPXchiRFUv19-gY8pR-504" value="&lt;font style=&quot;font-size: 12px;&quot;&gt;Username&lt;sup&gt;&lt;font style=&quot;font-size: 12px;&quot; color=&quot;#ff0000&quot;&gt;*&lt;/font&gt;&lt;/sup&gt;&lt;/font&gt;" style="fillColor=none;strokeColor=none;html=1;fontSize=11;fontStyle=0;align=left;fontColor=#596780;fontStyle=1;fontSize=11;sketch=1;hachureGap=4;jiggle=2;curveFitting=1;fontFamily=Architects Daughter;fontSource=https%3A%2F%2Ffonts.googleapis.com%2Fcss%3Ffamily%3DArchitects%2BDaughter;" parent="1" vertex="1">
          <mxGeometry x="119.75999999999999" y="4051" width="240" height="20" as="geometry" />
        </mxCell>
        <mxCell id="AhlPXchiRFUv19-gY8pR-505" value="&lt;font style=&quot;font-size: 12px;&quot;&gt;Password&lt;sup&gt;&lt;font style=&quot;font-size: 12px;&quot; color=&quot;#ff0000&quot;&gt;*&lt;/font&gt;&lt;/sup&gt;&lt;/font&gt;" style="fillColor=none;strokeColor=none;html=1;fontSize=11;fontStyle=0;align=left;fontColor=#596780;fontStyle=1;fontSize=11;sketch=1;hachureGap=4;jiggle=2;curveFitting=1;fontFamily=Architects Daughter;fontSource=https%3A%2F%2Ffonts.googleapis.com%2Fcss%3Ffamily%3DArchitects%2BDaughter;" parent="1" vertex="1">
          <mxGeometry x="119.21999999999997" y="4111.5" width="240" height="20" as="geometry" />
        </mxCell>
        <mxCell id="AhlPXchiRFUv19-gY8pR-506" value="&lt;span style=&quot;color: rgba(0, 0, 0, 0); font-family: monospace; font-size: 0px; background-color: rgb(251, 251, 251);&quot;&gt;%3CmxGraphModel%3E%3Croot%3E%3CmxCell%20id%3D%220%22%2F%3E%3CmxCell%20id%3D%221%22%20parent%3D%220%22%2F%3E%3CmxCell%20id%3D%222%22%20value%3D%22%22%20style%3D%22strokeWidth%3D1%3Bshadow%3D0%3Bdashed%3D0%3Balign%3Dcenter%3Bhtml%3D1%3Bshape%3Dmxgraph.mockup.text.textBox%3BfontColor%3D%23666666%3Balign%3Dleft%3BfontSize%3D17%3BspacingLeft%3D4%3BspacingTop%3D-3%3BwhiteSpace%3Dwrap%3BstrokeColor%3D%23666666%3BmainText%3D%22%20vertex%3D%221%22%20parent%3D%221%22%3E%3CmxGeometry%20x%3D%22731.9399999999999%22%20y%3D%22629%22%20width%3D%22150%22%20height%3D%2220%22%20as%3D%22geometry%22%2F%3E%3C%2FmxCell%3E%3C%2Froot%3E%3C%2FmxGraphModel%3E&lt;/span&gt;" style="rounded=1;arcSize=9;align=left;spacingLeft=5;strokeColor=#B3B3B3;html=1;strokeWidth=2;fontSize=12;sketch=1;hachureGap=4;jiggle=2;curveFitting=1;fontFamily=Architects Daughter;fontSource=https%3A%2F%2Ffonts.googleapis.com%2Fcss%3Ffamily%3DArchitects%2BDaughter;labelBackgroundColor=default;" parent="1" vertex="1">
          <mxGeometry x="121.99000000000001" y="4137" width="237.92" height="25" as="geometry" />
        </mxCell>
        <mxCell id="AhlPXchiRFUv19-gY8pR-507" value="&lt;span style=&quot;color: rgba(0, 0, 0, 0); font-family: monospace; font-size: 0px; background-color: rgb(251, 251, 251);&quot;&gt;%3CmxGraphModel%3E%3Croot%3E%3CmxCell%20id%3D%220%22%2F%3E%3CmxCell%20id%3D%221%22%20parent%3D%220%22%2F%3E%3CmxCell%20id%3D%222%22%20value%3D%22%22%20style%3D%22strokeWidth%3D1%3Bshadow%3D0%3Bdashed%3D0%3Balign%3Dcenter%3Bhtml%3D1%3Bshape%3Dmxgraph.mockup.text.textBox%3BfontColor%3D%23666666%3Balign%3Dleft%3BfontSize%3D17%3BspacingLeft%3D4%3BspacingTop%3D-3%3BwhiteSpace%3Dwrap%3BstrokeColor%3D%23666666%3BmainText%3D%22%20vertex%3D%221%22%20parent%3D%221%22%3E%3CmxGeometry%20x%3D%22731.9399999999999%22%20y%3D%22629%22%20width%3D%22150%22%20height%3D%2220%22%20as%3D%22geometry%22%2F%3E%3C%2FmxCell%3E%3C%2Froot%3E%3C%2FmxGraphModel%3E&lt;/span&gt;" style="rounded=1;arcSize=9;align=left;spacingLeft=5;strokeColor=#B3B3B3;html=1;strokeWidth=2;fontSize=12;sketch=1;hachureGap=4;jiggle=2;curveFitting=1;fontFamily=Architects Daughter;fontSource=https%3A%2F%2Ffonts.googleapis.com%2Fcss%3Ffamily%3DArchitects%2BDaughter;labelBackgroundColor=default;" parent="1" vertex="1">
          <mxGeometry x="119.68" y="4076" width="237.92" height="25" as="geometry" />
        </mxCell>
        <mxCell id="AhlPXchiRFUv19-gY8pR-508" value="" style="shape=mxgraph.signs.healthcare.eye;html=1;pointerEvents=1;fillColor=#000000;strokeColor=none;verticalLabelPosition=bottom;verticalAlign=top;align=center;sketch=1;hachureGap=4;jiggle=2;curveFitting=1;fontFamily=Architects Daughter;fontSource=https%3A%2F%2Ffonts.googleapis.com%2Fcss%3Ffamily%3DArchitects%2BDaughter;" parent="1" vertex="1">
          <mxGeometry x="330.40999999999997" y="4140.75" width="24.54" height="17.5" as="geometry" />
        </mxCell>
        <mxCell id="AhlPXchiRFUv19-gY8pR-510" value="&lt;font style=&quot;font-size: 12px;&quot;&gt;Confrim Password&lt;sup&gt;&lt;font style=&quot;font-size: 12px;&quot; color=&quot;#ff0000&quot;&gt;*&lt;/font&gt;&lt;/sup&gt;&lt;/font&gt;" style="fillColor=none;strokeColor=none;html=1;fontSize=11;fontStyle=0;align=left;fontColor=#596780;fontStyle=1;fontSize=11;sketch=1;hachureGap=4;jiggle=2;curveFitting=1;fontFamily=Architects Daughter;fontSource=https%3A%2F%2Ffonts.googleapis.com%2Fcss%3Ffamily%3DArchitects%2BDaughter;" parent="1" vertex="1">
          <mxGeometry x="124.54999999999995" y="4173.5" width="240" height="20" as="geometry" />
        </mxCell>
        <mxCell id="AhlPXchiRFUv19-gY8pR-511" value="&lt;span style=&quot;color: rgba(0, 0, 0, 0); font-family: monospace; font-size: 0px; background-color: rgb(251, 251, 251);&quot;&gt;%3CmxGraphModel%3E%3Croot%3E%3CmxCell%20id%3D%220%22%2F%3E%3CmxCell%20id%3D%221%22%20parent%3D%220%22%2F%3E%3CmxCell%20id%3D%222%22%20value%3D%22%22%20style%3D%22strokeWidth%3D1%3Bshadow%3D0%3Bdashed%3D0%3Balign%3Dcenter%3Bhtml%3D1%3Bshape%3Dmxgraph.mockup.text.textBox%3BfontColor%3D%23666666%3Balign%3Dleft%3BfontSize%3D17%3BspacingLeft%3D4%3BspacingTop%3D-3%3BwhiteSpace%3Dwrap%3BstrokeColor%3D%23666666%3BmainText%3D%22%20vertex%3D%221%22%20parent%3D%221%22%3E%3CmxGeometry%20x%3D%22731.9399999999999%22%20y%3D%22629%22%20width%3D%22150%22%20height%3D%2220%22%20as%3D%22geometry%22%2F%3E%3C%2FmxCell%3E%3C%2Froot%3E%3C%2FmxGraphModel%3E&lt;/span&gt;" style="rounded=1;arcSize=9;align=left;spacingLeft=5;strokeColor=#B3B3B3;html=1;strokeWidth=2;fontSize=12;sketch=1;hachureGap=4;jiggle=2;curveFitting=1;fontFamily=Architects Daughter;fontSource=https%3A%2F%2Ffonts.googleapis.com%2Fcss%3Ffamily%3DArchitects%2BDaughter;labelBackgroundColor=default;" parent="1" vertex="1">
          <mxGeometry x="123.32" y="4199" width="237.92" height="25" as="geometry" />
        </mxCell>
        <mxCell id="AhlPXchiRFUv19-gY8pR-512" value="" style="shape=mxgraph.signs.healthcare.eye;html=1;pointerEvents=1;fillColor=#000000;strokeColor=none;verticalLabelPosition=bottom;verticalAlign=top;align=center;sketch=1;hachureGap=4;jiggle=2;curveFitting=1;fontFamily=Architects Daughter;fontSource=https%3A%2F%2Ffonts.googleapis.com%2Fcss%3Ffamily%3DArchitects%2BDaughter;" parent="1" vertex="1">
          <mxGeometry x="334.05" y="4202.75" width="24.54" height="17.5" as="geometry" />
        </mxCell>
        <mxCell id="AhlPXchiRFUv19-gY8pR-513" value="&lt;font style=&quot;font-size: 12px;&quot;&gt;Email&lt;sup&gt;&lt;font style=&quot;font-size: 12px;&quot; color=&quot;#ff0000&quot;&gt;*&lt;/font&gt;&lt;/sup&gt;&lt;/font&gt;" style="fillColor=none;strokeColor=none;html=1;fontSize=11;fontStyle=0;align=left;fontColor=#596780;fontStyle=1;fontSize=11;sketch=1;hachureGap=4;jiggle=2;curveFitting=1;fontFamily=Architects Daughter;fontSource=https%3A%2F%2Ffonts.googleapis.com%2Fcss%3Ffamily%3DArchitects%2BDaughter;" parent="1" vertex="1">
          <mxGeometry x="386.98" y="4050.25" width="240" height="20" as="geometry" />
        </mxCell>
        <mxCell id="AhlPXchiRFUv19-gY8pR-514" value="&lt;font style=&quot;font-size: 12px;&quot;&gt;Adress&lt;sup&gt;&lt;font style=&quot;font-size: 12px;&quot; color=&quot;#ff0000&quot;&gt;*&lt;/font&gt;&lt;/sup&gt;&lt;/font&gt;" style="fillColor=none;strokeColor=none;html=1;fontSize=11;fontStyle=0;align=left;fontColor=#596780;fontStyle=1;fontSize=11;sketch=1;hachureGap=4;jiggle=2;curveFitting=1;fontFamily=Architects Daughter;fontSource=https%3A%2F%2Ffonts.googleapis.com%2Fcss%3Ffamily%3DArchitects%2BDaughter;" parent="1" vertex="1">
          <mxGeometry x="386.44" y="4110.75" width="240" height="20" as="geometry" />
        </mxCell>
        <mxCell id="AhlPXchiRFUv19-gY8pR-515" value="&lt;span style=&quot;color: rgba(0, 0, 0, 0); font-family: monospace; font-size: 0px; background-color: rgb(251, 251, 251);&quot;&gt;%3CmxGraphModel%3E%3Croot%3E%3CmxCell%20id%3D%220%22%2F%3E%3CmxCell%20id%3D%221%22%20parent%3D%220%22%2F%3E%3CmxCell%20id%3D%222%22%20value%3D%22%22%20style%3D%22strokeWidth%3D1%3Bshadow%3D0%3Bdashed%3D0%3Balign%3Dcenter%3Bhtml%3D1%3Bshape%3Dmxgraph.mockup.text.textBox%3BfontColor%3D%23666666%3Balign%3Dleft%3BfontSize%3D17%3BspacingLeft%3D4%3BspacingTop%3D-3%3BwhiteSpace%3Dwrap%3BstrokeColor%3D%23666666%3BmainText%3D%22%20vertex%3D%221%22%20parent%3D%221%22%3E%3CmxGeometry%20x%3D%22731.9399999999999%22%20y%3D%22629%22%20width%3D%22150%22%20height%3D%2220%22%20as%3D%22geometry%22%2F%3E%3C%2FmxCell%3E%3C%2Froot%3E%3C%2FmxGraphModel%3E&lt;/span&gt;" style="rounded=1;arcSize=9;align=left;spacingLeft=5;strokeColor=#B3B3B3;html=1;strokeWidth=2;fontSize=12;sketch=1;hachureGap=4;jiggle=2;curveFitting=1;fontFamily=Architects Daughter;fontSource=https%3A%2F%2Ffonts.googleapis.com%2Fcss%3Ffamily%3DArchitects%2BDaughter;labelBackgroundColor=default;" parent="1" vertex="1">
          <mxGeometry x="389.21000000000004" y="4136.25" width="237.92" height="25" as="geometry" />
        </mxCell>
        <mxCell id="AhlPXchiRFUv19-gY8pR-516" value="&lt;span style=&quot;color: rgba(0, 0, 0, 0); font-family: monospace; font-size: 0px; background-color: rgb(251, 251, 251);&quot;&gt;%3CmxGraphModel%3E%3Croot%3E%3CmxCell%20id%3D%220%22%2F%3E%3CmxCell%20id%3D%221%22%20parent%3D%220%22%2F%3E%3CmxCell%20id%3D%222%22%20value%3D%22%22%20style%3D%22strokeWidth%3D1%3Bshadow%3D0%3Bdashed%3D0%3Balign%3Dcenter%3Bhtml%3D1%3Bshape%3Dmxgraph.mockup.text.textBox%3BfontColor%3D%23666666%3Balign%3Dleft%3BfontSize%3D17%3BspacingLeft%3D4%3BspacingTop%3D-3%3BwhiteSpace%3Dwrap%3BstrokeColor%3D%23666666%3BmainText%3D%22%20vertex%3D%221%22%20parent%3D%221%22%3E%3CmxGeometry%20x%3D%22731.9399999999999%22%20y%3D%22629%22%20width%3D%22150%22%20height%3D%2220%22%20as%3D%22geometry%22%2F%3E%3C%2FmxCell%3E%3C%2Froot%3E%3C%2FmxGraphModel%3E&lt;/span&gt;" style="rounded=1;arcSize=9;align=left;spacingLeft=5;strokeColor=#B3B3B3;html=1;strokeWidth=2;fontSize=12;sketch=1;hachureGap=4;jiggle=2;curveFitting=1;fontFamily=Architects Daughter;fontSource=https%3A%2F%2Ffonts.googleapis.com%2Fcss%3Ffamily%3DArchitects%2BDaughter;labelBackgroundColor=default;" parent="1" vertex="1">
          <mxGeometry x="386.90000000000003" y="4075.25" width="237.92" height="25" as="geometry" />
        </mxCell>
        <mxCell id="AhlPXchiRFUv19-gY8pR-517" value="&lt;font style=&quot;font-size: 12px;&quot;&gt;Cell Phone&lt;sup&gt;&lt;font style=&quot;font-size: 12px;&quot; color=&quot;#ff0000&quot;&gt;*&lt;/font&gt;&lt;/sup&gt;&lt;/font&gt;" style="fillColor=none;strokeColor=none;html=1;fontSize=11;fontStyle=0;align=left;fontColor=#596780;fontStyle=1;fontSize=11;sketch=1;hachureGap=4;jiggle=2;curveFitting=1;fontFamily=Architects Daughter;fontSource=https%3A%2F%2Ffonts.googleapis.com%2Fcss%3Ffamily%3DArchitects%2BDaughter;" parent="1" vertex="1">
          <mxGeometry x="391.77" y="4172.75" width="240" height="20" as="geometry" />
        </mxCell>
        <mxCell id="AhlPXchiRFUv19-gY8pR-518" value="&lt;span style=&quot;color: rgba(0, 0, 0, 0); font-family: monospace; font-size: 0px; background-color: rgb(251, 251, 251);&quot;&gt;%3CmxGraphModel%3E%3Croot%3E%3CmxCell%20id%3D%220%22%2F%3E%3CmxCell%20id%3D%221%22%20parent%3D%220%22%2F%3E%3CmxCell%20id%3D%222%22%20value%3D%22%22%20style%3D%22strokeWidth%3D1%3Bshadow%3D0%3Bdashed%3D0%3Balign%3Dcenter%3Bhtml%3D1%3Bshape%3Dmxgraph.mockup.text.textBox%3BfontColor%3D%23666666%3Balign%3Dleft%3BfontSize%3D17%3BspacingLeft%3D4%3BspacingTop%3D-3%3BwhiteSpace%3Dwrap%3BstrokeColor%3D%23666666%3BmainText%3D%22%20vertex%3D%221%22%20parent%3D%221%22%3E%3CmxGeometry%20x%3D%22731.9399999999999%22%20y%3D%22629%22%20width%3D%22150%22%20height%3D%2220%22%20as%3D%22geometry%22%2F%3E%3C%2FmxCell%3E%3C%2Froot%3E%3C%2FmxGraphModel%3E&lt;/span&gt;" style="rounded=1;arcSize=9;align=left;spacingLeft=5;strokeColor=#B3B3B3;html=1;strokeWidth=2;fontSize=12;sketch=1;hachureGap=4;jiggle=2;curveFitting=1;fontFamily=Architects Daughter;fontSource=https%3A%2F%2Ffonts.googleapis.com%2Fcss%3Ffamily%3DArchitects%2BDaughter;labelBackgroundColor=default;" parent="1" vertex="1">
          <mxGeometry x="394.54" y="4198.25" width="237.92" height="25" as="geometry" />
        </mxCell>
        <mxCell id="AhlPXchiRFUv19-gY8pR-519" value="Update Profile" style="rounded=1;html=1;shadow=0;dashed=0;whiteSpace=wrap;fontSize=10;fillColor=#E6E6E6;align=center;strokeColor=#E6E6E6;fontColor=#333333;sketch=1;hachureGap=4;jiggle=2;curveFitting=1;fontFamily=Architects Daughter;fontSource=https%3A%2F%2Ffonts.googleapis.com%2Fcss%3Ffamily%3DArchitects%2BDaughter;" parent="1" vertex="1">
          <mxGeometry x="128.84" y="4240" width="105.5" height="16.88" as="geometry" />
        </mxCell>
        <mxCell id="AhlPXchiRFUv19-gY8pR-520" value="Delete Profile" style="rounded=1;html=1;shadow=0;dashed=0;whiteSpace=wrap;fontSize=10;fillColor=#E6E6E6;align=center;strokeColor=#E6E6E6;fontColor=#333333;sketch=1;hachureGap=4;jiggle=2;curveFitting=1;fontFamily=Architects Daughter;fontSource=https%3A%2F%2Ffonts.googleapis.com%2Fcss%3Ffamily%3DArchitects%2BDaughter;" parent="1" vertex="1">
          <mxGeometry x="525.39" y="4240" width="105.5" height="16.88" as="geometry" />
        </mxCell>
        <mxCell id="AhlPXchiRFUv19-gY8pR-521" value="&lt;span style=&quot;font-size: 24px;&quot;&gt;Contact Page&lt;/span&gt;" style="text;html=1;align=center;verticalAlign=middle;whiteSpace=wrap;rounded=0;" parent="1" vertex="1">
          <mxGeometry x="23.84" y="4310" width="189" height="30" as="geometry" />
        </mxCell>
        <mxCell id="AhlPXchiRFUv19-gY8pR-522" value="" style="rounded=0;whiteSpace=wrap;html=1;sketch=1;hachureGap=4;jiggle=2;curveFitting=1;fontFamily=Architects Daughter;fontSource=https%3A%2F%2Ffonts.googleapis.com%2Fcss%3Ffamily%3DArchitects%2BDaughter;" parent="1" vertex="1">
          <mxGeometry x="18.219999999999995" y="4360" width="693.3" height="390" as="geometry" />
        </mxCell>
        <mxCell id="AhlPXchiRFUv19-gY8pR-523" value="Image of&amp;nbsp; a Pizza" style="ellipse;whiteSpace=wrap;html=1;aspect=fixed;sketch=1;hachureGap=4;jiggle=2;curveFitting=1;fontFamily=Architects Daughter;fontSource=https%3A%2F%2Ffonts.googleapis.com%2Fcss%3Ffamily%3DArchitects%2BDaughter;" parent="1" vertex="1">
          <mxGeometry x="477.10999999999996" y="4471" width="205" height="205" as="geometry" />
        </mxCell>
        <mxCell id="AhlPXchiRFUv19-gY8pR-524" value="Image of&amp;nbsp; a Pizza Logo" style="ellipse;whiteSpace=wrap;html=1;aspect=fixed;sketch=1;hachureGap=4;jiggle=2;curveFitting=1;fontFamily=Architects Daughter;fontSource=https%3A%2F%2Ffonts.googleapis.com%2Fcss%3Ffamily%3DArchitects%2BDaughter;" parent="1" vertex="1">
          <mxGeometry x="28.650000000000002" y="4370" width="77" height="77" as="geometry" />
        </mxCell>
        <mxCell id="AhlPXchiRFUv19-gY8pR-525" value="Contact" style="rounded=0;whiteSpace=wrap;html=1;sketch=1;hachureGap=4;jiggle=2;curveFitting=1;fontFamily=Architects Daughter;fontSource=https%3A%2F%2Ffonts.googleapis.com%2Fcss%3Ffamily%3DArchitects%2BDaughter;" parent="1" vertex="1">
          <mxGeometry x="354.43" y="4390" width="98.4" height="18.3" as="geometry" />
        </mxCell>
        <mxCell id="AhlPXchiRFUv19-gY8pR-526" value="Log In" style="rounded=0;whiteSpace=wrap;html=1;sketch=1;hachureGap=4;jiggle=2;curveFitting=1;fontFamily=Architects Daughter;fontSource=https%3A%2F%2Ffonts.googleapis.com%2Fcss%3Ffamily%3DArchitects%2BDaughter;" parent="1" vertex="1">
          <mxGeometry x="473.03" y="4390" width="98.4" height="18.3" as="geometry" />
        </mxCell>
        <mxCell id="AhlPXchiRFUv19-gY8pR-527" value="Welcome" style="rounded=0;whiteSpace=wrap;html=1;sketch=1;hachureGap=4;jiggle=2;curveFitting=1;fontFamily=Architects Daughter;fontSource=https%3A%2F%2Ffonts.googleapis.com%2Fcss%3Ffamily%3DArchitects%2BDaughter;fillColor=#B3B3B3;" parent="1" vertex="1">
          <mxGeometry x="243.47000000000003" y="4390" width="98.4" height="18.3" as="geometry" />
        </mxCell>
        <mxCell id="AhlPXchiRFUv19-gY8pR-528" value="Create Account" style="rounded=0;whiteSpace=wrap;html=1;sketch=1;hachureGap=4;jiggle=2;curveFitting=1;fontFamily=Architects Daughter;fontSource=https%3A%2F%2Ffonts.googleapis.com%2Fcss%3Ffamily%3DArchitects%2BDaughter;" parent="1" vertex="1">
          <mxGeometry x="589.63" y="4390" width="98.4" height="18.3" as="geometry" />
        </mxCell>
        <mxCell id="AhlPXchiRFUv19-gY8pR-532" value="&lt;h1 style=&quot;margin-top: 0px;&quot;&gt;Contact Details:&lt;/h1&gt;&lt;p style=&quot;font-size: 15px;&quot;&gt;&lt;font style=&quot;font-size: 15px;&quot;&gt;&lt;b&gt;Phone Number:&lt;/b&gt; 0000000000&lt;/font&gt;&lt;/p&gt;&lt;p style=&quot;font-size: 15px;&quot;&gt;&lt;font style=&quot;font-size: 15px;&quot;&gt;&lt;b&gt;Email: &lt;/b&gt;something@gmail.com&lt;/font&gt;&lt;/p&gt;&lt;p style=&quot;font-size: 15px;&quot;&gt;&lt;font style=&quot;font-size: 15px;&quot;&gt;&lt;b&gt;Adress:&lt;/b&gt; 3 something road something&amp;nbsp;&lt;/font&gt;&lt;/p&gt;" style="text;html=1;whiteSpace=wrap;overflow=hidden;rounded=0;fontFamily=Architects Daughter;fontSource=https%3A%2F%2Ffonts.googleapis.com%2Fcss%3Ffamily%3DArchitects%2BDaughter;" parent="1" vertex="1">
          <mxGeometry x="96.63" y="4495" width="293.37" height="225" as="geometry" />
        </mxCell>
      </root>
    </mxGraphModel>
  </diagram>
</mxfile>
